<svg width="44" height="31" viewBox="0 0 44 31" fill="none" xmlns="http://www.w3.org/2000/svg">
<path d="M11.2262 30.1948C8.25547 30.1948 5.71726 29.2224 3.61161 27.2777C1.50595 25.3329 0.453125 22.956 0.453125 20.1469C0.453125 17.7392 1.2203 15.5938 2.75465 13.7107C4.28901 11.8277 6.29672 10.6238 8.7778 10.0991C9.59395 7.25912 11.2262 4.95938 13.6747 3.19985C16.1231 1.44031 18.898 0.560547 21.9993 0.560547C25.8189 0.560547 29.059 1.81846 31.7196 4.33428C34.3803 6.85011 35.7106 9.91386 35.7106 13.5255C37.9631 13.7725 39.8321 14.6908 41.3175 16.2806C42.8029 17.8703 43.5456 19.7302 43.5456 21.8602C43.5456 24.1753 42.6886 26.1432 40.9747 27.7639C39.2608 29.3845 37.1796 30.1948 34.7312 30.1948H23.9581C22.8808 30.1948 21.9585 29.8321 21.1914 29.1067C20.4242 28.3813 20.0406 27.5092 20.0406 26.4905V16.952L16.9066 19.8228L14.1644 17.2298L21.9993 9.82125L29.8343 17.2298L27.0921 19.8228L23.9581 16.952V26.4905H34.7312C36.1023 26.4905 37.2613 26.0429 38.208 25.1477C39.1547 24.2525 39.6281 23.1567 39.6281 21.8602C39.6281 20.5637 39.1547 19.4678 38.208 18.5726C37.2613 17.6774 36.1023 17.2298 34.7312 17.2298H31.7931V13.5255C31.7931 10.9634 30.8382 8.77942 28.9284 6.97359C27.0186 5.16775 24.709 4.26483 21.9993 4.26483C19.2897 4.26483 16.9801 5.16775 15.0703 6.97359C13.1605 8.77942 12.2056 10.9634 12.2056 13.5255H11.2262C9.33278 13.5255 7.71681 14.1584 6.37834 15.424C5.03986 16.6896 4.37062 18.2176 4.37062 20.008C4.37062 21.7984 5.03986 23.3264 6.37834 24.5921C7.71681 25.8577 9.33278 26.4905 11.2262 26.4905H16.1231V30.1948H11.2262Z" fill="#5735DE"/>
</svg>
