<svg width="30" height="31" viewBox="0 0 30 31" fill="none" xmlns="http://www.w3.org/2000/svg">
<path d="M12.9 16.4107V18.5431H17.1V16.4107H22V21.3864C22 21.779 21.6866 22.0972 21.3 22.0972H8.7C8.3134 22.0972 8 21.779 8 21.3864V16.4107H12.9ZM14.3 14.989H15.7V17.1215H14.3V14.989ZM11.5 10.7241V8.59168C11.5 8.19911 11.8134 7.88086 12.2 7.88086H17.8C18.1866 7.88086 18.5 8.19911 18.5 8.59168V10.7241H21.3C21.6866 10.7241 22 11.0424 22 11.435V14.989H17.1V13.5674H12.9V14.989H8V11.435C8 11.0424 8.3134 10.7241 8.7 10.7241H11.5ZM12.9 9.3025V10.7241H17.1V9.3025H12.9Z" fill="#151515"/>
</svg>
