<svg width="24" height="24" viewBox="0 0 24 24" fill="none" xmlns="http://www.w3.org/2000/svg">
<mask id="mask0_990_23006" style="mask-type:alpha" maskUnits="userSpaceOnUse" x="0" y="0" width="24" height="24">
<rect width="24" height="24" fill="#D9D9D9"/>
</mask>
<g mask="url(#mask0_990_23006)">
<path d="M12 6C11.45 6 10.9792 5.80417 10.5875 5.4125C10.1958 5.02083 10 4.55 10 4C10 3.45 10.1958 2.97917 10.5875 2.5875C10.9792 2.19583 11.45 2 12 2C12.55 2 13.0208 2.19583 13.4125 2.5875C13.8042 2.97917 14 3.45 14 4C14 4.55 13.8042 5.02083 13.4125 5.4125C13.0208 5.80417 12.55 6 12 6ZM9 22V9C8 8.91667 6.98333 8.79167 5.95 8.625C4.91667 8.45833 3.93333 8.25 3 8L3.5 6C4.8 6.35 6.18333 6.60417 7.65 6.7625C9.11667 6.92083 10.5667 7 12 7C13.4333 7 14.8833 6.92083 16.35 6.7625C17.8167 6.60417 19.2 6.35 20.5 6L21 8C20.0667 8.25 19.0833 8.45833 18.05 8.625C17.0167 8.79167 16 8.91667 15 9V22H13V16H11V22H9Z" fill="#F2F2F2"/>
</g>
</svg>
