<svg width="30" height="32" viewBox="0 0 30 32" fill="none" xmlns="http://www.w3.org/2000/svg">
<path d="M19.5625 17.8166V23.6268C19.5625 23.8603 19.3806 24.0497 19.1562 24.0497C19.0826 24.0497 19.0104 24.0288 18.9473 23.9894L15.5 21.8369L12.0528 23.9894C11.8604 24.1094 11.6108 24.0445 11.4954 23.8444C11.4575 23.7786 11.4375 23.7034 11.4375 23.6268V17.8166C9.95149 16.577 9 14.672 9 12.5359C9 8.8 11.9101 5.77148 15.5 5.77148C19.0899 5.77148 22 8.8 22 12.5359C22 14.672 21.0485 16.577 19.5625 17.8166ZM15.5 17.6091C18.1924 17.6091 20.375 15.3377 20.375 12.5359C20.375 9.73396 18.1924 7.46258 15.5 7.46258C12.8076 7.46258 10.625 9.73396 10.625 12.5359C10.625 15.3377 12.8076 17.6091 15.5 17.6091ZM15.5 15.918C13.7051 15.918 12.25 14.4038 12.25 12.5359C12.25 10.6679 13.7051 9.15367 15.5 9.15367C17.2949 9.15367 18.75 10.6679 18.75 12.5359C18.75 14.4038 17.2949 15.918 15.5 15.918Z" fill="#151515"/>
</svg>
