<svg width="18" height="18" viewBox="0 0 18 18" fill="none" xmlns="http://www.w3.org/2000/svg">
<path fill-rule="evenodd" clip-rule="evenodd" d="M1.59293 12.304C-0.655068 6.787 3.40393 0.75 9.36093 0.75H9.68193C10.7414 0.75 11.7906 0.958685 12.7694 1.36414C13.7483 1.7696 14.6377 2.36388 15.3869 3.11306C16.136 3.86225 16.7303 4.75166 17.1358 5.73051C17.5412 6.70936 17.7499 7.75849 17.7499 8.818C17.7499 11.2002 16.8036 13.4848 15.1192 15.1692C13.4347 16.8537 11.1501 17.8 8.76793 17.8H0.947931C0.792552 17.8001 0.640965 17.752 0.514118 17.6623C0.387271 17.5725 0.291426 17.4456 0.239828 17.2991C0.188229 17.1525 0.183424 16.9935 0.226077 16.8441C0.26873 16.6947 0.356735 16.5622 0.477931 16.465L2.44893 14.882C2.49107 14.8482 2.52115 14.8018 2.53467 14.7495C2.54819 14.6972 2.54442 14.642 2.52393 14.592L1.59293 12.304ZM9.36093 2.25C4.46793 2.25 1.13493 7.207 2.98093 11.738L3.91293 14.027C4.05493 14.3759 4.08054 14.7614 3.98596 15.126C3.89137 15.4907 3.68164 15.8151 3.38793 16.051L3.07893 16.3H8.76793C10.7523 16.3 12.6554 15.5117 14.0585 14.1086C15.4617 12.7054 16.2499 10.8023 16.2499 8.818C16.2499 7.07606 15.5579 5.40546 14.3262 4.17372C13.0945 2.94198 11.4239 2.25 9.68193 2.25H9.36093Z" fill="#5735DE"/>
</svg>
