<svg width="17" height="20" viewBox="0 0 17 20" fill="none" xmlns="http://www.w3.org/2000/svg">
<path d="M0 16.5V14.5H2V16.5H0ZM0 13V11H2V13H0ZM0 9.5V7.5H2V9.5H0ZM3.5 20V18H5.5V20H3.5ZM6 16C5.45 16 4.97917 15.8042 4.5875 15.4125C4.19583 15.0208 4 14.55 4 14V2C4 1.45 4.19583 0.979167 4.5875 0.5875C4.97917 0.195833 5.45 0 6 0H15C15.55 0 16.0208 0.195833 16.4125 0.5875C16.8042 0.979167 17 1.45 17 2V14C17 14.55 16.8042 15.0208 16.4125 15.4125C16.0208 15.8042 15.55 16 15 16H6ZM6 14H15V2H6V14ZM7 20V18H9V20H7ZM2 20C1.45 20 0.979167 19.8042 0.5875 19.4125C0.195833 19.0208 0 18.55 0 18H2V20ZM10.5 20V18H12.5C12.5 18.55 12.3042 19.0208 11.9125 19.4125C11.5208 19.8042 11.05 20 10.5 20ZM0 6C0 5.45 0.195833 4.97917 0.5875 4.5875C0.979167 4.19583 1.45 4 2 4V6H0Z" fill="#9A9A9A"/>
</svg>
