<svg width="97" height="97" viewBox="0 0 97 97" fill="none" xmlns="http://www.w3.org/2000/svg">
  <g clip-path="url(#clip0_1444_29122)">
    <path d="M32.4805 7.72615L32.4147 7.73131C31.4521 7.79762 30.378 7.40091 29.6529 6.76394C29.4516 6.58698 29.3313 6.39232 29.207 6.15864C29.5944 5.89623 30.0262 5.75014 30.4713 5.61388C31.7763 5.21443 33.2012 5.09409 34.5451 5.35037C35.0191 5.44077 35.5333 5.56948 35.9002 5.89672C35.9567 6.0626 35.9588 6.20912 35.8851 6.37247C35.6319 6.93421 34.4609 7.37262 33.9062 7.55393C33.5746 7.66233 33.1756 7.78269 32.8241 7.76688C32.7368 7.72298 32.5822 7.73858 32.4805 7.72615Z" fill="#2B3021" />
    <path d="M32.5199 5.60838C32.6717 5.57719 32.8763 5.59664 33.0331 5.59453C33.5257 5.5879 34.0342 5.62542 34.5171 5.726C34.8042 5.78579 35.3875 5.90761 35.5519 6.15725C35.5229 6.22413 35.523 6.23088 35.4764 6.29934C35.352 6.48217 35.1048 6.61898 34.913 6.72387C34.3265 7.04459 33.6464 7.32536 32.9762 7.38811L32.4199 7.42319C31.4192 7.43233 30.4372 6.9671 29.7285 6.27819C30.6217 5.89436 31.5542 5.69038 32.5199 5.60838Z" fill="#EBE9E4" />
    <path d="M64.1188 7.82089C63.2132 7.58411 62.2235 7.39353 61.5067 6.73842C61.3328 6.57949 61.1602 6.3739 61.1454 6.12801C61.1382 6.0065 61.1762 5.87836 61.2641 5.79152C61.8488 5.2142 63.8452 5.1686 64.649 5.22214C65.4196 5.27346 66.2316 5.42797 66.9665 5.66847C67.2371 5.757 67.4986 5.83368 67.718 6.02192C67.7739 6.1773 67.7757 6.29415 67.708 6.45154C67.4791 6.98372 66.4996 7.39235 65.981 7.56745C65.6925 7.66483 65.3806 7.7365 65.0769 7.76231C64.8986 7.77747 64.6724 7.742 64.5091 7.80671C64.3864 7.84895 64.2466 7.8269 64.1188 7.82089Z" fill="#2B3021" />
    <path d="M62.9308 7.07708L62.5427 6.91579C62.1526 6.73754 61.6954 6.53422 61.5352 6.10993C61.5708 6.02962 61.6145 5.99348 61.6891 5.95039C62.5389 5.45937 64.9403 5.49815 65.8941 5.78457C65.5458 5.79275 65.1237 5.73514 64.786 5.79056C64.6854 5.80708 64.5846 5.89778 64.5011 5.95602L63.7513 6.49903C63.6296 6.65114 63.5607 6.74452 63.5293 6.93879C63.6401 7.12318 63.7702 7.20616 63.9077 7.35896C63.5713 7.3024 63.2527 7.1863 62.9308 7.07708Z" fill="#FFE37C" />
    <path d="M62.9316 7.07695C62.9005 6.92882 62.8855 6.90768 62.9448 6.77123L63.752 6.4989C63.6304 6.65101 63.5615 6.74439 63.5301 6.93866C63.6409 7.12305 63.771 7.20603 63.9085 7.35883C63.5721 7.30227 63.2535 7.18617 62.9316 7.07695Z" fill="#FEF1CB" />
    <path d="M65.8941 5.78448C66.3684 5.85909 66.9273 5.97908 67.3129 6.27562C67.2792 6.43813 67.1264 6.5566 66.9906 6.64819C66.1492 7.21567 64.9982 7.58985 63.9845 7.37556L63.9077 7.35888C63.7702 7.20608 63.6401 7.1231 63.5293 6.93871C63.5606 6.74444 63.6296 6.65105 63.7512 6.49895L64.5011 5.95594C64.5846 5.8977 64.6853 5.807 64.786 5.79048C65.1236 5.73506 65.5457 5.79267 65.8941 5.78448Z" fill="#EBE9E4" />
    <path d="M32.4819 7.72607C32.5836 7.7385 32.7381 7.7229 32.8254 7.76681L33.3827 8.94994C33.9013 9.93538 34.5268 10.8807 35.1816 11.7803L36.1559 13.0426C36.3299 13.2747 36.5518 13.5062 36.5465 13.8063L36.3798 13.9782C35.742 14.5023 34.5829 14.7036 33.7945 14.5722C32.8578 14.416 31.9538 13.7833 31.4054 13.0232C30.8686 12.2795 30.6283 11.2553 30.7783 10.3507C30.9391 9.38154 31.595 8.42893 32.3885 7.86132C32.4636 7.80767 32.4523 7.80705 32.4819 7.72607Z" fill="#1F2318" />
    <path d="M32.6027 8.21277C32.6924 8.37452 32.7443 8.56862 32.8308 8.73654L33.6489 10.2064C34.3988 11.4436 35.3028 12.528 36.1792 13.6727C35.7172 13.9373 35.2367 14.135 34.7116 14.2283C34.5066 14.247 34.3116 14.2484 34.107 14.2289C33.2376 14.1463 32.4359 13.6545 31.8912 12.9831C31.3397 12.3031 31.02 11.3351 31.1344 10.4599C31.2551 9.53778 31.8743 8.75348 32.6027 8.21277Z" fill="#EBE9E4" />
    <path d="M64.5096 7.80676C64.7448 7.96171 64.9947 8.11163 65.1795 8.32701C65.8801 9.14361 66.3628 10.0638 66.2604 11.1666C66.1595 12.2521 65.6276 13.2039 64.7867 13.8912C64.2511 14.3292 63.3275 14.8029 62.6117 14.7122C62.0945 14.6468 61.5678 14.4182 61.0917 14.2158C60.8413 14.1095 60.5864 14.0276 60.4121 13.8086C60.4672 13.5233 60.9282 13.0981 61.1193 12.8629L61.7691 11.9932C62.3411 11.172 62.8708 10.3097 63.3317 9.42106C63.5934 8.91657 63.7778 8.25703 64.1193 7.82095C64.2471 7.82696 64.387 7.84901 64.5096 7.80676Z" fill="#1F2318" />
    <path d="M64.3228 8.14844C64.5594 8.3149 64.7745 8.50381 64.9713 8.71608C65.5073 9.29448 65.9473 10.1047 65.9144 10.9136C65.8757 11.8642 65.4958 12.7841 64.7844 13.4274C64.1594 13.9925 63.4308 14.3721 62.5728 14.3263C61.9692 14.1781 61.3852 13.907 60.8262 13.6395C61.1221 13.3818 61.3641 13.0551 61.6138 12.754C62.2836 11.9464 62.8517 11.0723 63.3694 10.1612C63.7334 9.52039 64.0905 8.849 64.3228 8.14844Z" fill="#EBE9E4" />
    <path d="M7.22537 37.0144C7.32414 37 7.38284 36.9652 7.47096 37.0207C7.59727 37.1003 7.69159 37.2807 7.77449 37.4043C7.9725 37.6992 8.16766 38.0032 8.39529 38.2764C8.67904 38.6169 9.0097 38.9141 9.35132 39.195C12.2512 41.5792 16.0252 43.1083 18.1611 46.3146C18.5178 46.8502 18.8483 47.4477 18.9901 48.08C19.2041 49.0334 19.0373 50.2704 18.8339 51.2203C18.7434 51.6432 18.6678 52.0018 18.434 52.3754L18.4027 52.4244C18.625 52.6568 18.7777 52.9895 18.9367 53.2677C19.426 54.1236 19.8298 54.8726 20.0524 55.8414C20.263 56.7582 20.118 57.69 20.0292 58.612C19.907 58.721 19.912 58.7335 19.7506 58.7348C19.4772 58.5288 19.2655 58.2645 19.0346 58.0146L18.2056 57.1688L14.9812 54.3341C14.4543 53.8311 13.9059 53.2744 13.5489 52.6345C13.3654 52.3057 13.2868 51.9494 13.3952 51.5787C13.5583 51.0215 14.0592 50.5482 14.5614 50.2822C15.1079 49.9928 15.8557 49.9307 16.44 50.1201L16.5163 50.1455C15.8519 49.3782 15.2438 48.555 14.4687 47.8918C13.8963 47.402 13.2697 46.9857 12.6594 46.5468C10.9011 45.2824 9.06669 44.0565 7.66093 42.3869C6.90474 41.4889 6.08794 40.2107 6.20933 38.98C6.2745 38.3192 6.70116 37.4328 7.22537 37.0144Z" fill="#1F2318" />
    <path d="M15.3005 50.4552L16.183 50.4485C16.5414 50.4793 16.7045 50.5697 16.9366 50.8457C17.375 51.3671 17.7238 52.0209 18.0854 52.599C18.8473 53.817 19.6276 55.0647 19.7733 56.527C19.8318 57.1129 19.7809 57.7056 19.7298 58.29L19.0298 57.4848C18.4417 56.854 17.7996 56.2975 17.1466 55.7359C16.323 55.0272 15.4915 54.3295 14.7369 53.5454C14.3527 53.1462 13.8514 52.6128 13.7347 52.0533C13.6796 51.7893 13.7293 51.5747 13.8779 51.3502C14.2253 50.8255 14.7 50.58 15.3005 50.4552Z" fill="#EBE9E4" />
    <path d="M7.30447 37.3776C8.0685 38.6576 9.13271 39.5755 10.3233 40.4458C12.3554 41.9315 14.6248 43.1162 16.4413 44.8809C17.0931 45.5142 17.6979 46.2091 18.1289 47.0152C18.3217 47.3756 18.5081 47.7482 18.5964 48.1503C18.8372 49.2477 18.5883 50.7403 18.2694 51.81L18.1882 51.8505L18.0855 51.7444C17.7878 51.408 17.5602 50.9694 17.3034 50.5991C16.6949 49.7215 16.0313 48.8515 15.2591 48.1105C12.7789 45.7306 9.27005 44.352 7.37126 41.3635C7.07385 40.8955 6.7921 40.3868 6.66371 39.843C6.43593 38.8779 6.81347 38.174 7.30447 37.3776Z" fill="#EBE9E4" />
    <path d="M89.5871 36.9672C89.6939 36.976 89.7878 37.0082 89.8726 37.0773C90.317 37.4395 90.6785 38.3651 90.7401 38.9327C91.1249 42.478 84.9151 45.8789 82.5707 47.8454C81.7311 48.5496 81.1111 49.3748 80.4242 50.215C80.7187 50.1416 81.0212 50.0697 81.3267 50.0742C82.0125 50.0844 82.7397 50.3907 83.2067 50.8949C83.4954 51.2066 83.6459 51.5679 83.6204 51.9952C83.6012 52.3163 83.4956 52.6055 83.3299 52.879C82.9689 53.4749 82.4122 53.9905 81.9088 54.4689L79.0212 57.0372L77.3359 58.7657L77.2267 58.7645C77.1084 58.6508 77.0203 58.5634 76.9846 58.3994L76.9706 58.3279L76.9514 58.2357C76.494 55.9826 77.3483 54.2546 78.5631 52.4257L78.514 52.305C77.9057 51.0504 77.6464 49.1422 78.032 47.782C78.2197 47.1205 78.5766 46.5597 78.9817 46.012C81.131 43.106 84.5182 41.7525 87.2202 39.5005C87.6529 39.1401 88.081 38.7552 88.4591 38.3372C88.6574 38.1179 88.8509 37.8805 89.016 37.6352C89.1761 37.3972 89.3307 37.1108 89.5871 36.9672Z" fill="#1F2318" />
    <path d="M80.855 50.4569L81.1098 50.4413C81.76 50.4228 82.3413 50.5768 82.8168 51.0429C83.0545 51.2758 83.2543 51.5751 83.2432 51.9205C83.233 52.2401 83.0877 52.5633 82.9129 52.8267C82.4963 53.4551 81.8771 54.0159 81.3229 54.5245L78.5297 56.962C78.0715 57.371 77.6876 57.783 77.326 58.2807C77.2363 57.66 77.1446 57.0512 77.2137 56.4221C77.3549 55.1367 77.9966 54.0404 78.6522 52.9566C79.0535 52.293 79.4685 51.6213 79.9354 51.0019C80.0073 50.9064 80.2082 50.5837 80.3026 50.5339C80.4097 50.4774 80.7218 50.4755 80.855 50.4569Z" fill="#EBE9E4" />
    <path d="M89.6386 37.3752C89.939 37.712 90.1465 38.1278 90.2677 38.5608L90.29 38.6423L90.3327 38.7886C90.4376 39.2124 90.3653 39.7269 90.2391 40.138C89.9564 41.0596 89.3072 41.8846 88.6521 42.5735C86.6536 44.6747 84.0533 45.9812 81.9274 47.9109C80.6973 49.0275 79.7432 50.414 78.8834 51.8247L78.7938 51.934C78.6872 51.8608 78.6184 51.4741 78.5829 51.3368C78.336 50.3846 78.1134 49.2031 78.3143 48.2261C78.4651 47.4922 78.8494 46.8576 79.2863 46.259C80.6819 44.3465 82.7446 43.0082 84.6947 41.724C86.5103 40.5285 88.5138 39.2957 89.6386 37.3752Z" fill="#EBE9E4" />
    <path d="M40.7002 9.02211L61.3167 9.01575L57.1457 16.1981L60.7113 16.1833L61.2597 17.0876C61.9055 16.5833 62.8175 16.2532 63.556 15.8894C65.0663 15.1455 66.5751 14.3038 68.1422 13.6853C68.9578 13.3634 69.7813 13.1244 70.6328 12.9171C72.5893 12.441 74.711 12.8171 76.4206 13.8709C77.9245 14.7978 78.8723 16.262 79.2691 17.9662C79.4431 18.713 79.4751 19.5172 79.5025 20.2818L79.5318 23.6727L79.2919 29.6262C79.1504 31.6272 78.9627 33.5975 78.552 35.5646C78.1142 37.6609 77.4457 39.7215 76.6635 41.7126C76.0172 43.3581 75.2705 45.0066 74.3296 46.5061C72.4626 49.481 70.1693 52.1325 67.5555 54.4706C66.3701 55.5307 65.1555 56.5523 63.8457 57.4576C60.6192 59.6876 56.903 61.33 53.0808 62.203C53.1582 62.8451 53.24 63.5281 53.4012 64.1536C53.7095 65.35 54.2434 66.5138 54.8257 67.5999C55.284 68.4545 55.7355 69.2139 56.3719 69.9518C56.703 70.3355 57.0706 70.7207 57.4517 71.056L58.6815 72.0667C59.5724 72.8653 60.2951 73.8491 60.4581 75.0584L65.0941 75.0658L65.0728 78.9604L70.2865 78.916L70.2604 84.0859L72.7022 84.0936C72.766 84.3362 72.7339 84.6552 72.7358 84.9077L72.7322 86.7341L72.7506 92.6895L56.8596 92.6914L24.6755 92.6598L24.7195 84.0538L27.2801 84.0562L27.2397 78.9384L32.2667 78.9309L32.2586 75.0552L37.2571 75.0599C37.2929 74.349 37.5655 73.6584 37.965 73.0736C38.5308 72.2459 39.343 71.5796 40.0047 70.8273C42.1473 68.3913 43.6807 65.425 43.8765 62.1468C42.3931 61.7984 40.9258 61.4486 39.4864 60.9414C38.4715 60.5838 37.4689 60.126 36.5046 59.6503C28.5151 55.7088 22.6897 48.2548 19.8658 39.9008C19.2123 37.9679 18.707 35.9501 18.3531 33.9409C17.674 30.084 17.4138 26.1117 17.4507 22.1985C17.4692 20.2317 17.3802 18.0342 18.2811 16.2304C19.0178 14.7551 20.3254 13.754 21.8762 13.2455C23.2918 12.7815 24.9086 12.6304 26.3812 12.879C28.2351 13.192 29.8591 14.0117 31.4999 14.8808L35.9472 17.2582C36.154 16.9354 36.3507 16.5439 36.4877 16.1858L36.5022 16.1466L39.876 16.1449L36.921 11.252C36.5007 10.5504 35.9357 9.85033 35.6511 9.08382C36.2446 9.01387 36.869 9.04597 37.4667 9.04189L40.7002 9.02211Z" fill="#2B3021" />
    <path d="M72.2285 19.3868C72.5064 19.334 72.7453 19.3243 73.027 19.3396C72.9618 19.4321 72.9184 19.4904 72.8964 19.6039C72.7279 19.6294 72.4262 19.5914 72.2694 19.5198L72.2285 19.3868Z" fill="#FFE37C" />
    <path d="M52.2617 74.5877C52.41 74.4769 52.6568 74.4576 52.8382 74.4284C53.4882 74.3242 54.1232 74.3087 54.7793 74.307C55.1121 74.3313 55.7436 74.2349 55.998 74.3842C56.0262 74.4773 56.043 74.5675 56.058 74.6636C56.1201 74.7242 56.1264 74.7471 56.2123 74.766C56.288 74.7827 56.3249 74.8047 56.3865 74.8484L56.7654 74.6886C56.7648 74.7539 56.7657 74.8141 56.7725 74.8793L56.7189 74.9542L56.7855 75.0228L56.7831 75.0365L52.3625 75.0298L52.2617 74.5877Z" fill="#FFF4B1" />
    <path d="M73.0271 19.3395C73.7468 19.4478 74.5483 19.7332 74.9927 20.3483C75.0843 20.4749 75.1546 20.6216 75.2246 20.761C75.0166 21.5447 74.6502 22.1714 73.9279 22.5872L73.8407 22.6333C73.7364 22.4002 73.8152 22.1617 73.8622 21.9236C73.9525 21.4669 74.1801 20.5324 73.9337 20.1209C73.7582 19.8281 73.2101 19.6763 72.8965 19.6038C72.9185 19.4903 72.9619 19.4321 73.0271 19.3395Z" fill="#FEF1CB" />
    <path d="M58.4269 72.4149C59.1105 73.1107 59.8841 74.0227 60 75.0287L56.7829 75.0364L56.7853 75.0227L56.7188 74.9541L56.7723 74.8792C56.7655 74.814 56.7646 74.7538 56.7652 74.6885C57.0974 74.5802 57.7883 74.3531 57.9556 74.0322C58.0765 73.8002 58.1048 73.3818 58.1451 73.1177C58.1869 72.8428 58.2438 72.6306 58.4269 72.4149Z" fill="#FEF1CB" />
    <path d="M57.5905 71.6979L58.427 72.4149C58.244 72.6306 58.1871 72.8428 58.1452 73.1176C58.105 73.3817 58.0767 73.8002 57.9558 74.0322C57.7884 74.3531 57.0976 74.5802 56.7654 74.6885L56.3865 74.8482C56.3249 74.8045 56.288 74.7826 56.2123 74.7659C56.1264 74.7469 56.1201 74.7241 56.058 74.6635C56.0429 74.5673 56.0262 74.4772 55.998 74.3841C55.7436 74.2348 55.1121 74.3312 54.7793 74.3069C55.1689 74.2522 55.5914 74.2701 55.9861 74.2574C56.0701 74.173 56.1581 74.0881 56.2246 73.9887C56.4717 73.6179 56.6132 73.1443 56.7483 72.7216C56.801 72.5567 56.8719 72.3976 56.8394 72.2225C56.907 72.2194 56.9113 72.223 56.9858 72.1971C57.2008 72.1224 57.4847 71.8957 57.5905 71.6979Z" fill="#FFE37C" />
    <path d="M73.8408 22.6333C73.4014 22.7935 72.685 22.5657 72.2787 22.3753C71.8034 22.1526 71.3946 21.7896 71.2281 21.2809C71.1079 20.9136 71.1177 20.4532 71.299 20.1058C71.4985 19.7231 71.8278 19.514 72.2287 19.3867L72.2696 19.5197C72.4263 19.5913 72.7281 19.6293 72.8966 19.6038C73.2102 19.6763 73.7583 19.8281 73.9337 20.1209C74.1802 20.5324 73.9526 21.4669 73.8623 21.9236C73.8153 22.1617 73.7365 22.4002 73.8408 22.6333Z" fill="#FEDA60" />
    <path d="M50.6781 64.2551L52.9279 64.2631C53.2344 65.512 53.8061 66.8404 54.5068 67.9157L51.2697 67.9015C50.7632 67.8991 50.219 67.9375 49.7168 67.8835C50.0558 67.8415 50.4136 67.8679 50.7551 67.8701C51.5544 67.8757 52.3666 67.9149 53.1635 67.8464C52.8944 67.6438 52.6038 67.4622 52.3609 67.2278C51.5289 66.4244 50.9778 65.3643 50.6781 64.2551Z" fill="#FCCA2D" />
    <path d="M53.0721 68.4392L54.7586 68.4382C55.4232 69.6881 56.471 70.8381 57.5904 71.698C57.4846 71.8957 57.2006 72.1225 56.9857 72.1972C56.9112 72.2231 56.9069 72.2195 56.8393 72.2226L55.3234 71.6378C54.9939 71.5086 54.6485 71.3525 54.298 71.2935C54.1669 71.2714 54.0752 71.2397 53.9548 71.1832C54.0147 71.0191 54.0729 70.9246 54.0441 70.7502C53.9011 70.6638 53.7409 70.5989 53.5897 70.5278C53.3396 70.1869 53.1735 69.7489 53.0997 69.336L53.0843 69.2452C53.0344 68.961 53.0437 68.723 53.0721 68.4392Z" fill="#EBE9E4" />
    <path d="M23.7334 19.0999C24.1559 19.049 24.6361 19.0593 25.0275 19.2389C25.429 19.4232 25.7088 19.7371 25.8494 20.1561C25.9868 20.5656 25.913 20.9244 25.7144 21.2951C25.3988 21.8841 24.7846 22.2361 24.1639 22.4205C23.8693 22.4958 23.6084 22.5061 23.3055 22.5045C22.6797 22.1571 22.1807 21.5784 21.9761 20.8831C21.9028 20.6343 21.9034 20.4003 22.0438 20.1757C22.4094 19.5909 23.0788 19.2374 23.7334 19.0999Z" fill="#FCCA2D" />
    <path d="M35.7227 42.8542C36.2059 43.2252 36.6462 43.743 37.0986 44.1654C38.4078 45.3877 39.7253 46.6751 41.124 47.7951C42.0313 48.5216 43.0784 48.955 44.0595 49.5548C44.6559 49.9193 45.1569 50.3275 45.6619 50.8093C45.8206 50.9607 46.0326 51.1083 46.0971 51.3244C44.8786 51.1965 43.6095 50.6329 42.5252 50.0828C40.1739 48.8898 38.2766 46.9821 36.8012 44.823C36.389 44.2198 35.9496 43.5517 35.7227 42.8542Z" fill="#D19D08" />
    <path d="M53.9541 71.1831C54.0745 71.2397 54.1662 71.2714 54.2973 71.2935C54.6478 71.3525 54.9932 71.5086 55.3227 71.6378L56.8386 72.2226C56.8711 72.3976 56.8002 72.5568 56.7475 72.7216C56.6124 73.1443 56.4709 73.618 56.2238 73.9888C56.1573 74.0882 56.0693 74.1731 55.9853 74.2574C55.5906 74.2702 55.1681 74.2523 54.7785 74.3069C54.1224 74.3086 53.4874 74.3241 52.8374 74.4283C52.656 74.4575 52.4092 74.4768 52.2609 74.5876L52.256 74.5891C52.0956 74.3408 52.0059 74.0168 51.9122 73.7367C51.6435 72.9343 51.4052 72.0917 51.3633 71.244C52.0751 71.2449 52.8785 71.3218 53.579 71.2258C53.7078 71.2287 53.8378 71.248 53.9541 71.1831Z" fill="#FCCA2D" />
    <path d="M43.4002 16.1125C43.0694 16.1515 42.7142 16.1283 42.3791 16.1317L40.4924 16.1619C40.3833 16.0781 40.3107 15.9206 40.2366 15.8025L39.774 15.0661L37.9891 12.1411C37.4622 11.2495 36.9474 10.3368 36.3496 9.49109C37.2883 9.59319 38.3053 9.51715 39.2514 9.51755L46.27 9.52624L46.2252 9.53023L41.7779 9.55428C41.7776 11.1106 41.8792 12.755 41.6917 14.2982C41.6351 14.7631 41.5568 15.2251 41.3929 15.6655C41.3584 15.758 41.2235 16.0138 41.2498 16.0965C41.9409 16.0948 42.72 16.0195 43.4002 16.1125Z" fill="#D19D08" />
    <path d="M27.4652 34.0028C27.4677 34.6055 27.566 35.1256 27.7483 35.6998C28.1169 36.8599 28.7137 37.9711 29.1834 39.0939L30.4392 42.134C30.6295 42.581 30.8028 43.0704 31.0395 43.4939C32.054 45.7538 33.212 47.9021 34.6817 49.9036C35.1993 50.6084 35.7766 51.2732 36.3467 51.9357C37.1438 52.8619 38.0214 53.8202 39.0092 54.5418L39.0833 54.7426C38.5156 54.4687 37.9752 54.0708 37.4644 53.7043C35.39 52.2156 33.5254 50.4509 31.947 48.4417C29.283 45.0507 27.7462 40.9617 27.4597 36.6592C27.4 35.7633 27.3563 34.898 27.4652 34.0028Z" fill="#D19D08" />
    <path d="M49.7182 67.8835C49.4978 67.9119 49.2488 67.8898 49.0257 67.8894L47.5895 67.8868L42.7402 67.8675C43.1622 67.117 43.4902 66.2661 43.7517 65.4468C43.8797 65.0452 44.0087 64.6663 44.0754 64.2489L50.6795 64.2551C50.9792 65.3643 51.5302 66.4243 52.3623 67.2277C52.6052 67.4622 52.8958 67.6438 53.1648 67.8464C52.368 67.9148 51.5557 67.8757 50.7565 67.8701C50.415 67.8678 50.0572 67.8414 49.7182 67.8835Z" fill="#FFE37C" />
    <path d="M40.7414 70.7558C40.9476 70.5807 41.1265 70.324 41.2905 70.1094C41.6859 69.5924 42.0639 69.0265 42.3761 68.4555L42.403 68.4053C42.757 68.3433 43.1828 68.39 43.5481 68.3903L46.0099 68.3926L50.5591 68.3975C51.3856 68.3986 52.2505 68.3475 53.0714 68.4392C53.043 68.723 53.0337 68.9609 53.0836 69.2451L53.099 69.3359C53.1728 69.7488 53.3389 70.1868 53.589 70.5277C53.7401 70.5988 53.9004 70.6637 54.0434 70.7501C54.0722 70.9245 54.014 71.019 53.9541 71.1831C53.8378 71.248 53.7078 71.2287 53.579 71.2258C53.2366 71.1725 52.8344 71.2056 52.4857 71.2028L50.262 71.1919L44.0408 71.1918L40.4121 71.171L40.5153 71.116C40.5467 70.9388 40.6011 70.8658 40.7414 70.7558Z" fill="#FEDA60" />
    <path d="M40.4121 71.171L40.5153 71.1161C40.5467 70.9389 40.6011 70.8659 40.7414 70.7559C41.7897 70.8627 42.9118 70.787 43.9676 70.7881L50.7968 70.7862C51.8654 70.7813 52.9796 70.6953 54.0434 70.7502C54.0722 70.9246 54.014 71.0191 53.9541 71.1832C53.8378 71.2481 53.7078 71.2288 53.579 71.2259C53.2366 71.1726 52.8344 71.2056 52.4857 71.2029L50.262 71.192L44.0408 71.1919L40.4121 71.171Z" fill="#1F2318" />
    <path d="M68.9922 13.7867C71.2978 13.0331 73.4798 12.8505 75.7068 13.9658C77.1475 14.6872 78.2133 15.9205 78.7098 17.4535L78.8244 17.8541C78.7428 18.0812 78.7348 18.1916 78.5063 18.3006C78.0271 18.529 77.5134 18.6936 77.0133 18.8699C76.6167 19.0098 76.2384 19.1738 75.815 19.2036C75.7453 18.9293 75.6399 18.6903 75.487 18.4514C74.9968 17.6852 74.1145 17.1376 73.229 16.9546C72.3302 16.7689 71.52 16.8686 70.6515 17.1308C70.2473 16.8919 69.771 14.9984 69.5066 14.4777C69.3725 14.2134 69.1858 14.0074 68.9922 13.7867Z" fill="#EBE9E4" />
    <path d="M54.8801 37.4651L56.8652 47.1114L56.18 48.0586C55.8592 48.4761 55.4309 48.9244 55.31 49.4472C55.3938 49.5296 55.4545 49.5166 55.5668 49.5321C55.2017 49.8375 54.6433 50.0976 54.2128 50.296C52.8493 50.9249 51.4399 51.4006 49.9336 51.4904C50.3064 51.0331 50.6259 50.4872 50.9379 49.9869C53.2838 46.2263 54.3475 41.821 54.8801 37.4651Z" fill="#FCCA2D" />
    <path d="M67.2124 14.5478L68.9931 13.7866C69.1867 14.0074 69.3734 14.2134 69.5075 14.4776C69.7719 14.9984 70.2482 16.8919 70.6525 17.1307C70.0085 17.4338 69.4666 17.7626 68.9235 18.2234C67.7466 19.3241 67.1694 20.5761 66.5653 22.0334L65.3048 22.0933C65.187 22.0052 65.0891 21.7545 65.0066 21.624C64.8128 21.3176 64.5919 21.0179 64.37 20.7311L61.5039 17.3132C61.6234 17.2172 61.825 17.159 61.9677 17.0962L62.8426 16.6858L67.2124 14.5478Z" fill="#FEDA60" />
    <path d="M67.2109 14.5478L68.9917 13.7866C69.1853 14.0074 69.372 14.2134 69.5061 14.4776C69.7704 14.9984 70.2467 16.8919 70.651 17.1307C70.007 17.4338 69.4652 17.7626 68.9221 18.2234C68.7338 18.0904 68.5807 17.8806 68.4337 17.7046C68.0027 17.1891 67.4833 16.4699 67.3479 15.8016L67.338 15.7483L67.2109 14.5478Z" fill="#FFE37C" />
    <path d="M40.4119 71.171L44.0405 71.1919L50.2618 71.192L52.4855 71.2029C52.8342 71.2056 53.2364 71.1725 53.5788 71.2258C52.8783 71.3218 52.0749 71.2449 51.363 71.244C51.405 72.0918 51.6433 72.9343 51.9119 73.7367C52.0057 74.0169 52.0953 74.3408 52.2557 74.5891L52.2607 74.5876L52.3615 75.0298L48.1483 75.0115C47.3543 75.0413 38.0222 75.0787 37.89 75.0215C37.8603 75.0086 37.8365 74.9852 37.8097 74.9672C37.8029 74.9125 37.797 74.8655 37.8037 74.8103C37.9297 73.7616 38.8248 72.8255 39.5114 72.0921C39.8013 71.7825 40.0879 71.444 40.4119 71.171Z" fill="#D19D08" />
    <path d="M48.1495 75.0115C47.7435 74.9006 47.2108 74.9623 46.7847 74.9626L43.9317 74.9525C43.9248 74.912 43.92 74.9002 43.9279 74.8548C43.9702 74.609 44.5186 74.2517 44.7116 74.0761C45.5123 73.3477 46.2064 72.4204 46.2549 71.2967L46.257 71.2396L51.3643 71.244C51.4062 72.0918 51.6446 72.9343 51.9132 73.7367C52.0069 74.0169 52.0966 74.3408 52.257 74.5892L52.2619 74.5876L52.3627 75.0298L48.1495 75.0115Z" fill="#FEDA60" />
    <path d="M51.248 9.51854L58.2326 9.5258L59.8169 9.52058C60.0315 9.51938 60.3209 9.4825 60.5225 9.53853L58.8376 12.4493C58.8223 12.4754 58.7938 12.544 58.7628 12.5562L56.6807 16.1087L51.3644 16.0958L48.1641 16.1069C48.1891 16.0122 48.2188 15.9154 48.2881 15.8428C48.4513 15.6722 48.7204 15.5578 48.9258 15.4433C49.6666 15.0309 50.5617 14.6332 51.1356 13.9954C51.3783 13.7255 51.622 13.3643 51.6686 12.9951C51.713 12.6428 51.527 12.2059 51.4247 11.8722C51.2686 11.3635 51.1174 10.8551 51.1 10.3193C51.0928 10.0935 51.0907 9.6872 51.248 9.51854Z" fill="#FEDA60" />
    <path d="M51.3655 16.0958C51.2197 16.0832 51.051 16.0943 50.9355 15.9948L50.9573 15.8667L51.7919 15.108C52.0748 14.8404 52.3504 14.5365 52.686 14.3343C53.0747 14.1001 53.5969 14.0365 54.0406 13.9683L56.1907 13.679C56.9621 13.5667 57.8846 13.5157 58.3808 12.8401C58.4648 12.7258 58.5513 12.6278 58.6515 12.5276L58.7639 12.5563L56.6818 16.1087L51.3655 16.0958Z" fill="#FEF1CB" />
    <path d="M22.8638 13.4359C23.8467 13.2258 24.8054 13.1368 25.8098 13.2419C28.6618 13.5406 31.2103 15.1951 33.6829 16.5222C34.3427 16.8762 35.0099 17.3264 35.7064 17.5982L33.6707 20.2463C33.2572 20.7815 32.8226 21.3169 32.4899 21.9067C32.4438 21.9887 32.4649 21.956 32.3939 22.0346L30.9715 22.0532L30.9504 21.9922C30.31 20.1668 29.1858 18.1281 27.3632 17.279C26.277 16.7729 25.0437 16.697 23.8885 16.9839C23.4299 16.5416 23.0686 15.8546 22.8604 15.2563C22.6636 14.6907 22.6021 13.9902 22.8638 13.4359Z" fill="#FFE37C" />
    <path d="M54.0483 57.0492L54.1137 57.0886C53.6524 57.8963 53.1501 58.8701 52.9169 59.7743C52.5857 61.0587 52.6576 62.4183 52.8988 63.7099L44.1762 63.7125L44.3385 61.9054C44.3379 61.2381 44.2976 60.5657 44.1399 59.9146C43.9015 58.9303 43.4297 57.9541 42.9492 57.0671C43.7259 57.3902 44.5522 57.5841 45.377 57.7373C48.2461 58.2703 51.305 58.0733 54.0483 57.0492Z" fill="#FFE37C" />
    <path d="M54.6889 26.8467L53.9336 22.5668L60.3202 22.5629L60.3461 22.6202C60.5729 23.1151 60.8608 23.5811 61.1053 24.0679C61.4721 24.7978 61.7876 25.5469 62.0784 26.31C63.8392 30.9304 64.0896 36.3991 62.373 41.0718C61.0612 44.6425 58.7792 47.4957 55.5671 49.5322C55.4548 49.5166 55.394 49.5296 55.3103 49.4473C55.4312 48.9244 55.8594 48.4762 56.1803 48.0586L56.8654 47.1115C57.2531 46.8317 57.6013 46.2971 57.9079 45.92C58.365 45.3581 58.8398 44.8067 59.2566 44.2136C59.8346 43.3915 60.2947 42.5014 60.7593 41.6138C61.4484 40.2976 62.1357 38.9043 62.5833 37.4858C62.6368 37.3157 62.6915 37.1351 62.6789 36.9551C62.6591 36.6752 62.5629 36.3794 62.4965 36.1071L62.0509 34.4331C61.4356 32.1805 60.8572 29.9227 60.0548 27.7267L59.0394 25.291C58.7628 24.6408 58.5139 23.9783 58.1892 23.3501L56.2235 23.3842C55.9096 23.3895 55.5229 23.3476 55.2306 23.4532C54.5155 24.1116 54.9919 25.4611 55.0725 26.3101C55.0899 26.4935 55.1431 26.7402 55.0912 26.9186L55.0694 26.9733C55.125 27.0754 55.1119 27.1374 55.1098 27.2504L55.1086 27.305C55.184 27.4192 55.1558 27.5489 55.1559 27.6839C55.2442 27.8177 55.1748 27.9374 55.2033 28.0864C55.2494 28.3268 55.2542 28.5224 55.2507 28.7731C55.3227 28.8823 55.297 28.9819 55.2966 29.1109C55.2959 29.4009 55.2272 29.8922 55.3287 30.155L55.4117 30.1943C55.4487 30.3177 55.4203 30.3779 55.3947 30.5027C55.3563 30.6889 55.2797 30.8403 55.1965 31.01C55.1964 30.8773 55.1995 30.7543 55.1666 30.6249C55.1354 30.5023 55.1589 30.3806 55.1308 30.2653C55.0452 29.9134 55.135 29.5219 55.0444 29.1522C54.9825 28.8993 55.0371 28.6567 54.9724 28.4021C54.9068 28.1437 54.9526 27.8892 54.9099 27.6366C54.8893 27.515 54.8311 27.4153 54.8257 27.2885C54.8173 27.0933 54.8004 27.0106 54.6889 26.8467Z" fill="#FEF1CB" />
    <path d="M46.2697 9.52623L51.2492 9.51855C51.0919 9.68722 51.094 10.0935 51.1012 10.3193C51.1186 10.8551 51.2698 11.3635 51.4259 11.8722C51.5282 12.2059 51.7142 12.6428 51.6698 12.9951C51.6232 13.3643 51.3795 13.7255 51.1368 13.9954C50.5629 14.6332 49.6678 15.031 48.927 15.4433C48.7216 15.5578 48.4525 15.6722 48.2893 15.8428C48.22 15.9155 48.1903 16.0122 48.1653 16.1069L43.3999 16.1125C42.7197 16.0195 41.9406 16.0948 41.2495 16.0964C41.2232 16.0138 41.3581 15.758 41.3926 15.6655C41.5565 15.2251 41.6348 14.7631 41.6914 14.2982C41.879 12.755 41.7773 11.1106 41.7777 9.55427L46.2249 9.53022L46.2697 9.52623Z" fill="#FCCA2D" />
    <path d="M43.234 78.8632L32.7639 78.9619L32.7461 75.5058L64.5972 75.4998L64.5937 79.0048L55.098 78.8128L43.234 78.8632Z" fill="#FEDA60" />
    <path d="M43.2344 78.8632C43.9803 78.6418 44.7504 78.5449 45.5225 78.423C45.8133 78.377 46.1317 78.3698 46.409 78.2682L46.463 78.2473C46.9377 78.0709 47.3543 77.7656 47.7772 77.4932C48.0195 77.3372 48.293 77.1739 48.5773 77.1157C49.3828 76.9504 50.3048 77.3329 51.0045 77.6942C51.4316 77.9149 51.8513 78.1809 52.3078 78.3356C52.9373 78.5488 53.6097 78.4363 54.2395 78.5803C54.5303 78.6468 54.8474 78.6367 55.0984 78.8128L43.2344 78.8632Z" fill="#D19D08" />
    <path d="M54.6875 26.8466C54.799 27.0106 54.8159 27.0933 54.8243 27.2885C54.8297 27.4153 54.8879 27.515 54.9085 27.6365C54.9512 27.8891 54.9054 28.1436 54.971 28.4021C55.0357 28.6567 54.9812 28.8993 55.043 29.1522C55.1336 29.5219 55.0438 29.9134 55.1294 30.2653C55.1575 30.3806 55.134 30.5023 55.1652 30.6248C55.1981 30.7543 55.195 30.8773 55.1951 31.0099C55.2783 30.8403 55.3549 30.6889 55.3933 30.5027C55.4189 30.3779 55.4473 30.3177 55.4103 30.1943L55.3273 30.155C55.2258 29.8922 55.2945 29.4009 55.2953 29.1109C55.2956 28.9819 55.3213 28.8823 55.2493 28.7731C55.2528 28.5224 55.248 28.3268 55.2019 28.0864C55.1734 27.9374 55.2429 27.8177 55.1546 27.6839C55.1544 27.5489 55.1826 27.4192 55.1072 27.305L55.1085 27.2504C55.1105 27.1374 55.1236 27.0754 55.068 26.9733L55.0898 26.9186C55.1417 26.7402 55.0885 26.4935 55.0711 26.3101C54.9905 25.4611 54.5141 24.1116 55.2292 23.4532C55.5215 23.3476 55.9082 23.3895 56.2221 23.3842L58.1878 23.3501C58.5126 23.9783 58.7614 24.6408 59.038 25.291L60.0534 27.7267C60.8558 29.9227 61.4342 32.1805 62.0495 34.4331L62.4951 36.1071C62.5616 36.3794 62.6577 36.6752 62.6775 36.9551C62.6901 37.1351 62.6354 37.3157 62.5819 37.4858C62.1343 38.9043 61.4471 40.2976 60.758 41.6138C60.2933 42.5014 59.8332 43.3915 59.2552 44.2136C58.8384 44.8067 58.3637 45.3581 57.9066 45.92C57.5999 46.2971 57.2517 46.8317 56.8641 47.1115L54.879 37.4651C55.1346 35.4188 55.2349 33.3224 55.1115 31.2612L54.6875 26.8466Z" fill="#FEDA60" />
    <path d="M36.7399 16.6479L60.5159 16.6493C60.9712 17.4435 61.6196 18.1316 62.2057 18.8316L64.7725 22.0312L60.9803 22.0322L32.9458 22.0264C32.941 21.9693 32.9753 21.9483 33.0073 21.9045C34.2733 20.1666 35.6986 18.5371 36.7399 16.6479Z" fill="#FFE37C" />
    <path d="M72.1077 17.2126C72.7873 17.1707 73.4349 17.3199 74.0242 17.6615C74.5428 17.9621 75.2005 18.5236 75.3525 19.1242L75.3663 19.1821C75.4334 19.4524 75.4418 19.7244 75.4562 20.0013C74.9327 19.5629 74.4565 19.2424 73.7796 19.0671C73.0416 18.876 72.1279 18.8549 71.4673 19.2848C71.0893 19.5309 70.8254 19.9364 70.7332 20.3751C70.6158 20.9328 70.7712 21.4724 71.0975 21.9292C71.5742 22.5962 72.2918 22.9183 73.0864 23.0239C73.2928 23.0513 73.5622 23.0369 73.7568 23.0975C74.0041 23.1745 74.3597 23.6993 74.4664 23.9171C75.0009 25.0073 74.9792 26.4278 74.9857 27.6166C75.0097 31.9997 74.2815 36.2135 72.8238 40.351C70.0339 48.27 64.0007 54.5291 56.4724 58.1285L53.4531 59.3299C53.9121 58.5654 54.1655 57.5765 54.7007 56.8778C54.8032 56.744 55.1202 56.649 55.283 56.5786L56.8363 55.8962C58.586 55.0887 60.1922 54.1043 61.7061 52.9121C66.3013 49.2932 69.8949 43.6231 70.5866 37.7575C70.9872 34.3614 70.6067 30.7475 69.2375 27.5995C68.4544 25.7989 67.3311 24.0952 66.1196 22.5579C66.2725 22.5362 66.6133 22.5111 66.7343 22.4315C66.9387 22.2971 67.1263 21.6472 67.2285 21.4078C67.5882 20.5655 68.0173 19.81 68.6196 19.1137C69.5579 18.029 70.6575 17.3213 72.1077 17.2126Z" fill="#644FBB" />
    <path d="M78.8241 17.854C79.0649 18.8858 79.0863 19.9528 79.0932 21.0083L79.0935 23.7857L78.9177 28.9863C78.7951 31.1753 78.5981 33.3176 78.1603 35.4689C77.706 37.7018 76.9978 39.9148 76.1273 42.019C75.4961 43.5447 74.784 45.0563 73.9119 46.4606C70.7827 51.4987 66.132 55.9011 60.9558 58.775C59.2596 59.7169 57.497 60.5417 55.6405 61.1157L53.043 61.7431L53.0913 60.7072C53.1225 60.4111 53.1448 59.9936 53.3815 59.8025L57.1129 58.2704C57.3312 58.1233 57.6008 58.0143 57.8363 57.8923C58.3768 57.6124 58.9231 57.3324 59.4411 57.0121L62.0925 55.2274L63.5519 54.0939C63.557 54.06 63.599 54.0441 63.6249 54.0216L65.2666 52.5809L66.827 51.0482C68.4734 49.1691 69.9574 47.2582 71.1922 45.077C71.8785 43.8647 72.447 42.5298 72.945 41.23C74.5013 37.1678 75.3151 32.9451 75.4251 28.5985C75.4461 27.7662 75.4303 26.9321 75.3698 26.1015C75.2788 24.8557 75.1239 23.7389 74.2353 22.8044C74.6213 22.5146 74.9419 22.2214 75.2223 21.8256C75.7554 21.0729 75.9683 20.1094 75.8147 19.2035C76.2381 19.1737 76.6164 19.0097 77.013 18.8699C77.5131 18.6935 78.0268 18.529 78.506 18.3005C78.7345 18.1915 78.7426 18.0811 78.8241 17.854Z" fill="#FFE37C" />
    <path d="M66.9962 51.15C67.3204 50.8063 67.6444 50.4738 67.9172 50.0866C67.9964 49.9745 68.0501 49.8881 68.1786 49.8286C68.3488 49.8938 68.4278 50.155 68.5016 50.3213C68.6941 50.7552 68.9914 51.3761 68.8115 51.8548C68.7152 52.1115 68.4609 52.3736 68.2801 52.579C66.997 54.0354 65.2815 55.067 63.7029 56.1632L60.912 58.0252C60.2025 58.4867 59.5101 58.9681 58.7713 59.3853C57.9565 59.8453 57.0563 60.23 56.185 60.572C55.8457 60.7051 55.5157 60.8025 55.2092 61.0045L55.0202 61.114L55.0354 61.1702L55.0754 61.1597L55.2486 61.1228L55.2958 61.0531L55.3546 61.0785C55.4551 61.1152 55.535 61.1135 55.6405 61.1157L53.043 61.7432L53.0913 60.7073C53.1225 60.4112 53.1448 59.9937 53.3815 59.8026L57.1129 58.2705C57.3312 58.1234 57.6008 58.0144 57.8363 57.8924C58.3768 57.6125 58.9231 57.3325 59.4411 57.0122L62.0925 55.2275L63.5519 54.094C63.557 54.0601 63.599 54.0442 63.6249 54.0217L65.2666 52.581L66.827 51.0483L66.9007 51.1679L66.9836 51.1427L66.9962 51.15Z" fill="#FCCA2D" />
    <path d="M63.5527 54.0939C63.5578 54.06 63.5998 54.0441 63.6257 54.0216L65.2674 52.5809L66.8277 51.0482L66.9015 51.1678L66.9844 51.1426L66.997 51.1499L63.7061 54.2596L63.5527 54.0939Z" fill="#FEDA60" />
    <path d="M57.1143 58.2706C57.3325 58.1234 57.6022 58.0144 57.8376 57.8924C58.3782 57.6125 58.9244 57.3325 59.4424 57.0122L62.0939 55.2276L63.5533 54.094L63.7066 54.2597C63.2247 54.6759 62.7311 55.0882 62.2131 55.4591C61.901 55.6825 61.5529 55.8435 61.2392 56.0601C61.0314 56.2035 60.8475 56.3787 60.6384 56.5211C59.8663 57.0474 59.0319 57.5241 58.206 57.9616C58.0533 58.0426 57.7913 58.2263 57.6266 58.2431C57.1349 58.5335 56.6065 58.741 56.0896 58.9792C55.3243 59.3319 54.3839 59.8756 53.5313 59.9382L53.3828 59.8026L57.1143 58.2706Z" fill="url(#paint0_linear_1444_29122)" />
    <path d="M43.8002 60.1744C43.7593 60.3088 43.8206 60.5788 43.838 60.7256L43.9094 61.6853C42.4801 61.4109 41.0803 61.0724 39.7094 60.5776C37.8403 59.903 36.0938 58.9867 34.3931 57.9693C31.7117 56.3654 29.3508 54.3091 27.2962 51.9629C26.4812 51.032 25.6875 50.0914 24.9735 49.079C22.3312 45.3316 20.471 40.9985 19.3639 36.5582C18.6392 33.6516 18.2772 30.6874 18.0835 27.7022L17.9199 21.6975C17.9444 20.4161 17.9458 19.0821 18.2302 17.8274C18.3795 17.1685 18.6526 16.5375 19.0031 15.9615C19.8559 14.56 21.3115 13.8057 22.8645 13.4359C22.6028 13.9903 22.6643 14.6907 22.8611 15.2563C23.0694 15.8546 23.4306 16.5417 23.8892 16.984C22.8821 17.3063 22.1221 17.7648 21.6158 18.7301C21.2306 19.4643 21.3308 20.0987 21.5377 20.8742C21.8624 21.6019 22.1805 22.045 22.751 22.5933L22.7098 22.6313C21.7149 23.5642 21.5361 25.4489 21.5011 26.735L21.4842 28.2086C21.5521 30.9091 21.88 33.5968 22.5389 36.2199C23.169 38.7282 24.1302 41.1909 25.2583 43.5131C26.5351 46.1415 28.0891 48.6279 29.9895 50.8523C33.159 54.3674 36.7258 57.4287 41.2051 59.1218C42.0014 59.4228 42.8021 59.7484 43.6451 59.8924C43.7358 59.9896 43.7616 60.0511 43.8002 60.1744Z" fill="#FCCA2D" />
    <path d="M29.9896 50.8523C33.1591 54.3674 36.7259 57.4287 41.2052 59.1218C42.0015 59.4228 42.8022 59.7484 43.6452 59.8924C43.7359 59.9896 43.7617 60.0511 43.8003 60.1744L43.7142 60.1672C43.3858 60.1375 43.0688 60.0324 42.7539 59.9394C42.106 59.748 41.4948 59.5184 40.8745 59.2532C39.6787 58.7418 38.5271 58.1809 37.417 57.4997C36.1535 56.7243 34.9556 55.7907 33.8155 54.8458C32.3882 53.6629 31.0501 52.4226 29.8711 50.9848L29.9896 50.8523Z" fill="#FFE37C" />
    <path d="M21.5386 20.8743C21.8633 21.6019 22.1813 22.0451 22.7518 22.5934L22.7106 22.6314C21.7158 23.5643 21.5369 25.4489 21.5019 26.7351L21.485 28.2086C21.4705 28.1323 21.4644 28.0068 21.4208 27.9447L21.4016 28.3751C21.3877 28.6147 21.3953 28.8982 21.4447 29.1285V29.2706C21.4477 29.7225 21.4825 30.1366 21.5511 30.573L21.5394 30.6915L21.5511 31.1889H21.5037C21.5013 31.0229 21.489 30.8994 21.4599 30.7388L21.4634 30.5892C21.4663 30.4555 21.4578 30.3083 21.4232 30.1792C21.3832 30.03 21.4332 29.8663 21.3798 29.7229C21.3026 29.5156 21.4347 28.7008 21.291 28.6312C21.3093 28.9419 21.3433 29.2567 21.3074 29.5666C21.2366 29.1809 21.2529 28.7511 21.2441 28.3588L21.3154 24.9409C21.3202 23.8933 21.2027 22.8373 21.2772 21.7895C21.2921 21.5797 21.3045 21.1905 21.3841 21.0056C21.3965 20.977 21.5087 20.8995 21.5386 20.8743Z" fill="#FEF1CB" />
    <path d="M21.3074 29.5666C21.3433 29.2566 21.3093 28.9419 21.291 28.6312C21.4347 28.7008 21.3026 29.5155 21.3798 29.7228C21.4332 29.8663 21.3832 30.03 21.4233 30.1791C21.4579 30.3082 21.4663 30.4555 21.4634 30.5891L21.4599 30.7388C21.4891 30.8993 21.5013 31.0228 21.5037 31.1888H21.5511L21.5395 30.6914L21.5511 30.5729C21.4825 30.1366 21.4478 29.7224 21.4447 29.2705V29.1284C21.3953 28.8982 21.3878 28.6146 21.4017 28.375L21.4209 27.9446C21.4644 28.0067 21.4705 28.1323 21.485 28.2086C21.553 30.909 21.8808 33.5967 22.5398 36.2199C23.1699 38.7281 24.131 41.1909 25.2592 43.5131C26.536 46.1414 28.09 48.6278 29.9903 50.8523L29.8719 50.9847C29.1053 50.0524 28.3644 49.1353 27.6847 48.1357C25.907 45.5219 24.5232 42.6609 23.4287 39.7014C22.9956 38.5305 22.5818 37.3572 22.2817 36.144L21.8826 34.1016C21.6002 32.6199 21.351 31.0755 21.3074 29.5666Z" fill="#FFF4B1" />
    <path d="M24.9059 17.2127C25.4821 17.182 26.0219 17.2602 26.5712 17.4235L26.879 17.5248C28.9221 18.3138 29.7763 20.3213 30.6305 22.1611C30.7571 22.4341 31.013 22.4804 31.2766 22.5735C30.0286 24.006 29.1067 25.7749 28.3775 27.5194C25.9268 33.3813 26.5313 40.3394 29.6242 45.8473C30.6902 47.7459 32.03 49.4344 33.5542 50.9845C34.481 51.9271 35.4237 52.8057 36.4939 53.5846C38.0126 54.6899 39.5706 55.5706 41.295 56.3104L42.0828 56.6468C42.1678 56.683 42.3416 56.7336 42.4023 56.8052C42.5329 56.9593 42.6358 57.3082 42.7197 57.4982L43.5691 59.4566C42.606 59.2721 41.575 58.8642 40.6679 58.4938C38.1102 57.4098 35.943 55.9713 33.8369 54.1738C30.8202 51.5991 28.2576 48.4447 26.383 44.9443C23.6451 39.8316 21.9095 34.0657 21.8814 28.2344C21.8753 26.9677 21.8762 25.628 22.2546 24.4069C22.4005 23.9359 22.6263 23.2943 23.0879 23.0509C23.2951 22.9417 23.6403 22.9298 23.8778 22.8852C24.2718 22.8112 24.6605 22.6849 25.0137 22.4942C25.6045 22.1753 26.0848 21.6893 26.2634 21.0281C26.3963 20.5359 26.3011 20.0675 26.0435 19.6356C25.765 19.1685 25.2697 18.8835 24.7498 18.7604C23.6899 18.5096 22.7092 18.959 21.8223 19.486C21.9486 19.0499 22.0918 18.7112 22.3872 18.3606C23.0245 17.6043 23.9535 17.2918 24.9059 17.2127Z" fill="#644FBB" />
    <path d="M60.0102 79.3801C60.2797 79.3375 60.6224 79.3797 60.8985 79.3829L62.9768 79.4035L69.7687 79.4211L69.7784 84.0675L27.7452 84.0602L27.7109 79.4211L52.1354 79.1772L52.1994 79.1832L60.0102 79.3801Z" fill="#FEDA60" />
    <path d="M52.1994 79.1832L60.0102 79.3801C59.9642 79.4123 59.9624 79.4169 59.9012 79.4404C59.6588 79.5336 59.3042 79.5498 59.0444 79.5558C56.7526 79.6089 54.4683 79.4281 52.1818 79.363L49.2555 79.3094C48.8475 79.3004 48.2861 79.3573 47.9082 79.2152L52.1424 79.1869L52.1994 79.1832Z" fill="#FEF1CB" />
    <path d="M27.4649 34.0028C27.4637 33.3095 27.561 32.5839 27.67 31.9002C28.057 29.4746 28.9714 27.0872 30.2225 24.9772L31.0845 23.6107C31.3193 23.2747 31.6083 22.9519 31.793 22.5857L31.8126 22.5452L53.8239 22.5493L54.225 25.8694C54.4683 28.1367 54.7345 30.3961 54.7348 32.6807C54.735 35.1814 54.3999 37.6722 53.9276 40.1234C53.2882 43.3642 52.3535 46.5782 50.6344 49.4235C50.18 50.1757 49.7098 50.904 49.1228 51.5606C48.1115 51.5573 47.0898 51.526 46.0963 51.3244C46.0318 51.1083 45.8198 50.9606 45.6611 50.8092C45.1561 50.3275 44.6551 49.9193 44.0587 49.5548C43.0776 48.9549 42.0305 48.5215 41.1232 47.795C39.7245 46.6751 38.407 45.3877 37.0978 44.1653C36.6454 43.743 36.2051 43.2251 35.7219 42.8542C35.1886 41.8886 34.7958 40.7788 34.4628 39.7283C33.6401 37.1345 33.2888 34.3338 33.545 31.6193C33.6956 30.0247 34.06 28.4677 34.4817 26.9263C34.6628 26.264 34.8737 25.5955 35.1203 24.9549C35.3552 24.3443 35.7004 23.6557 35.8209 23.0201C35.3793 23.5486 35.109 24.2735 34.8324 24.9004C33.5582 27.7892 32.8341 30.7525 32.8706 33.9211C32.9017 36.6244 33.6103 39.1814 34.5416 41.6972C34.6497 41.8559 34.7165 42.0773 34.7957 42.2561L35.2531 43.2095C35.8096 44.2847 36.4893 45.3187 37.2327 46.2741C39.4207 49.0858 42.8586 51.4649 46.4543 51.8932C47.9531 52.0717 49.5797 52.102 51.07 51.8432C53.5119 51.4194 55.6861 50.2764 57.6139 48.7539C61.2758 45.8618 63.3949 41.379 63.9371 36.8019C64.4322 32.6228 63.8113 28.4452 62.0071 24.6323C61.6948 23.9721 61.374 23.2002 60.9152 22.629L60.8775 22.5832L65.3863 22.562L65.6782 22.5615C65.7132 22.6211 65.7391 22.6755 65.7666 22.739C65.9663 23.2018 66.4457 23.6768 66.7412 24.0974C67.3033 24.8979 67.8294 25.7089 68.2947 26.5708C70.773 31.162 70.9364 37.0555 69.163 41.9144C68.4494 43.8695 67.5295 45.8669 66.2392 47.5174C65.6676 48.3934 64.976 49.2088 64.2706 49.9801C63.6067 50.7057 62.9137 51.4207 62.1453 52.037C61.6666 52.5067 61.0936 52.9117 60.5529 53.3073C58.5679 54.7599 56.3441 55.8329 54.0046 56.5783C52.0996 57.1852 50.1578 57.5676 48.1534 57.5463C44.976 57.5123 41.7971 56.3295 39.083 54.7426L39.0089 54.5418C38.0211 53.8202 37.1435 52.8619 36.3464 51.9357C35.7763 51.2732 35.199 50.6084 34.6814 49.9036C33.2117 47.9021 32.0537 45.7538 31.0392 43.4939C30.8025 43.0704 30.6292 42.581 30.4389 42.134L29.1831 39.0939C28.7134 37.9711 28.1166 36.8599 27.748 35.6998C27.5656 35.1256 27.4674 34.6055 27.4649 34.0028Z" fill="url(#paint1_linear_1444_29122)" />
    <path d="M66.15 47.1885L66.1965 47.3009L66.0719 47.529C66.1497 47.529 66.1053 47.5362 66.2006 47.4877L66.2396 47.5174C65.668 48.3934 64.9764 49.2088 64.271 49.9801C63.6071 50.7057 62.9141 51.4207 62.1457 52.037L62.0273 51.9795L62.5752 51.3645C63.1248 50.8015 63.7219 50.2615 64.2394 49.6702C64.9303 48.8805 65.5441 48.0435 66.15 47.1885Z" fill="#FEF1CB" />
    <path d="M53.9277 40.1235C53.8256 40.129 53.7777 40.1175 53.686 40.0727C53.6264 39.6728 53.6528 39.2415 53.6639 38.8378L53.8549 35.9536L54.0212 29.7167C54.0281 29.115 53.885 26.3618 54.0748 25.9569C54.1042 25.894 54.1642 25.8925 54.2251 25.8695C54.4683 28.1368 54.7346 30.3962 54.7348 32.6807C54.7351 35.1815 54.4 37.6723 53.9277 40.1235Z" fill="#FFE37C" />
    <path d="M65.3877 22.562L65.6796 22.5615C65.7146 22.6211 65.7405 22.6756 65.768 22.7391C65.9677 23.2019 66.4471 23.6769 66.7426 24.0975C67.3047 24.898 67.8308 25.709 68.2961 26.5709C70.7744 31.1621 70.9378 37.0556 69.1644 41.9144C68.4508 43.8696 67.5309 45.8669 66.2406 47.5174L66.2016 47.4878C66.1062 47.5363 66.1507 47.5291 66.0729 47.5291L66.1974 47.301L66.1509 47.1885C66.3132 46.8305 66.5864 46.4767 66.795 46.1407C67.245 45.4159 67.6898 44.6874 68.0495 43.9126C68.536 42.865 68.8715 41.7669 69.1712 40.6539C69.4127 39.7576 69.6368 38.8722 69.7735 37.9526C70.3432 34.124 69.7925 29.8445 67.7747 26.5008C67.478 26.0091 67.1559 25.51 66.8087 25.0525L65.4634 23.3725C65.286 23.1558 64.9751 22.8755 64.8809 22.616L65.3877 22.562Z" fill="url(#paint2_linear_1444_29122)" />
    <path d="M39.3389 91H38.1846L36.3213 87.7598H36.2949C36.3027 87.8945 36.3096 88.0303 36.3154 88.167C36.3213 88.3037 36.3271 88.4404 36.333 88.5771C36.3389 88.7119 36.3447 88.8477 36.3506 88.9844V91H35.5391V86.7168H36.6846L38.5449 89.9248H38.5654C38.5615 89.792 38.5566 89.6602 38.5508 89.5293C38.5449 89.3984 38.5391 89.2676 38.5332 89.1367C38.5293 89.0059 38.5254 88.875 38.5215 88.7441V86.7168H39.3389V91ZM43.3555 87.7246V91H42.6699L42.5498 90.5811H42.5029C42.4326 90.6924 42.3447 90.7832 42.2393 90.8535C42.1338 90.9238 42.0176 90.9756 41.8906 91.0088C41.7637 91.042 41.6318 91.0586 41.4951 91.0586C41.2607 91.0586 41.0566 91.0176 40.8828 90.9355C40.709 90.8516 40.5732 90.7217 40.4756 90.5459C40.3799 90.3701 40.332 90.1416 40.332 89.8604V87.7246H41.2256V89.6377C41.2256 89.8721 41.2676 90.0488 41.3516 90.168C41.4355 90.2871 41.5693 90.3467 41.7529 90.3467C41.9346 90.3467 42.0771 90.3057 42.1807 90.2236C42.2842 90.1396 42.3564 90.0176 42.3975 89.8574C42.4404 89.6953 42.4619 89.498 42.4619 89.2656V87.7246H43.3555ZM48.1396 87.6631C48.5107 87.6631 48.791 87.7588 48.9805 87.9502C49.1719 88.1396 49.2676 88.4443 49.2676 88.8643V91H48.3711V89.0869C48.3711 88.8525 48.3311 88.6758 48.251 88.5566C48.1709 88.4375 48.0469 88.3779 47.8789 88.3779C47.6426 88.3779 47.4746 88.4629 47.375 88.6328C47.2754 88.8008 47.2256 89.042 47.2256 89.3564V91H46.332V89.0869C46.332 88.9307 46.3145 88.7998 46.2793 88.6943C46.2441 88.5889 46.1904 88.5098 46.1182 88.457C46.0459 88.4043 45.9531 88.3779 45.8398 88.3779C45.6738 88.3779 45.543 88.4199 45.4473 88.5039C45.3535 88.5859 45.2861 88.708 45.2451 88.8701C45.2061 89.0303 45.1865 89.2266 45.1865 89.459V91H44.293V87.7246H44.9756L45.0957 88.1436H45.1455C45.2119 88.0303 45.2949 87.9385 45.3945 87.8682C45.4961 87.7979 45.6074 87.7461 45.7285 87.7129C45.8496 87.6797 45.9727 87.6631 46.0977 87.6631C46.3379 87.6631 46.541 87.7021 46.707 87.7803C46.875 87.8584 47.0039 87.9795 47.0938 88.1436H47.1729C47.2705 87.9756 47.4082 87.8535 47.5859 87.7773C47.7656 87.7012 47.9502 87.6631 48.1396 87.6631ZM51.0811 86.4414V87.502C51.0811 87.625 51.0771 87.7471 51.0693 87.8682C51.0635 87.9893 51.0557 88.083 51.0459 88.1494H51.0811C51.167 88.0146 51.2842 87.9004 51.4326 87.8066C51.5811 87.7109 51.7734 87.6631 52.0098 87.6631C52.377 87.6631 52.6748 87.8066 52.9033 88.0938C53.1318 88.3809 53.2461 88.8018 53.2461 89.3564C53.2461 89.7295 53.1934 90.043 53.0879 90.2969C52.9824 90.5488 52.835 90.7393 52.6455 90.8682C52.4561 90.9951 52.2363 91.0586 51.9863 91.0586C51.7461 91.0586 51.5566 91.0156 51.418 90.9297C51.2793 90.8438 51.167 90.7471 51.0811 90.6396H51.0195L50.8701 91H50.1875V86.4414H51.0811ZM51.7227 88.3779C51.5664 88.3779 51.4424 88.4102 51.3506 88.4746C51.2588 88.5391 51.1914 88.6357 51.1484 88.7646C51.1074 88.8936 51.085 89.0566 51.0811 89.2539V89.3506C51.0811 89.6689 51.1279 89.9131 51.2217 90.083C51.3154 90.251 51.4863 90.335 51.7344 90.335C51.918 90.335 52.0635 90.25 52.1709 90.0801C52.2803 89.9102 52.335 89.665 52.335 89.3447C52.335 89.0244 52.2803 88.7832 52.1709 88.6211C52.0615 88.459 51.9121 88.3779 51.7227 88.3779ZM55.335 87.6631C55.6377 87.6631 55.8984 87.7217 56.1172 87.8389C56.3359 87.9541 56.5049 88.1221 56.624 88.3428C56.7432 88.5635 56.8027 88.833 56.8027 89.1514V89.585H54.6904C54.7002 89.8369 54.7754 90.0352 54.916 90.1797C55.0586 90.3223 55.2559 90.3936 55.5078 90.3936C55.7168 90.3936 55.9082 90.3721 56.082 90.3291C56.2559 90.2861 56.4346 90.2217 56.6182 90.1357V90.8271C56.4561 90.9072 56.2861 90.9658 56.1084 91.0029C55.9326 91.04 55.7188 91.0586 55.4668 91.0586C55.1387 91.0586 54.8477 90.998 54.5938 90.877C54.3418 90.7559 54.1436 90.5713 53.999 90.3232C53.8564 90.0752 53.7852 89.7627 53.7852 89.3857C53.7852 89.0029 53.8496 88.6846 53.9785 88.4307C54.1094 88.1748 54.291 87.9834 54.5234 87.8564C54.7559 87.7275 55.0264 87.6631 55.335 87.6631ZM55.3408 88.2988C55.167 88.2988 55.0225 88.3545 54.9072 88.4658C54.7939 88.5771 54.7285 88.752 54.7109 88.9902H55.9648C55.9629 88.8574 55.9385 88.7393 55.8916 88.6357C55.8467 88.5322 55.7783 88.4502 55.6865 88.3896C55.5967 88.3291 55.4814 88.2988 55.3408 88.2988ZM59.3574 87.6631C59.4023 87.6631 59.4541 87.666 59.5127 87.6719C59.5732 87.6758 59.6221 87.6816 59.6592 87.6895L59.5918 88.5273C59.5625 88.5176 59.5205 88.5107 59.4658 88.5068C59.4131 88.501 59.3672 88.498 59.3281 88.498C59.2129 88.498 59.1006 88.5127 58.9912 88.542C58.8838 88.5713 58.7871 88.6191 58.7012 88.6855C58.6152 88.75 58.5469 88.8359 58.4961 88.9434C58.4473 89.0488 58.4229 89.1787 58.4229 89.333V91H57.5293V87.7246H58.2061L58.3379 88.2754H58.3818C58.4463 88.1641 58.5264 88.0625 58.6221 87.9707C58.7197 87.877 58.8301 87.8027 58.9531 87.748C59.0781 87.6914 59.2129 87.6631 59.3574 87.6631ZM63.8223 91H62.917V88.5215C62.917 88.4531 62.918 88.3691 62.9199 88.2695C62.9219 88.168 62.9248 88.0645 62.9287 87.959C62.9326 87.8516 62.9365 87.7549 62.9404 87.6689C62.9189 87.6943 62.875 87.7383 62.8086 87.8008C62.7441 87.8613 62.6836 87.916 62.627 87.9648L62.1348 88.3604L61.6982 87.8154L63.0781 86.7168H63.8223V91Z" fill="#F2F2F2" />
  </g>
  <defs>
    <linearGradient id="paint0_linear_1444_29122" x1="59.238" y1="57.8633" x2="57.8584" y2="56.1673" gradientUnits="userSpaceOnUse">
      <stop stop-color="#FFD77D" />
      <stop offset="1" stop-color="#FFF894" />
    </linearGradient>
    <linearGradient id="paint1_linear_1444_29122" x1="34.1382" y1="20.2383" x2="63.7126" y2="50.4678" gradientUnits="userSpaceOnUse">
      <stop stop-color="#FAC00F" />
      <stop offset="1" stop-color="#FFE173" />
    </linearGradient>
    <linearGradient id="paint2_linear_1444_29122" x1="63.9838" y1="35.346" x2="70.3869" y2="34.246" gradientUnits="userSpaceOnUse">
      <stop stop-color="#FFE698" />
      <stop offset="1" stop-color="#FFF5D7" />
    </linearGradient>
    <clipPath id="clip0_1444_29122">
      <rect width="97" height="97" fill="white" />
    </clipPath>
  </defs>
</svg>