<svg width="21" height="21" viewBox="0 0 21 21" fill="none" xmlns="http://www.w3.org/2000/svg">
<path d="M14.85 11L12.85 9H16V11H14.85ZM18.775 20.625L16.5 18.35C15.6833 18.8833 14.8125 19.2917 13.8875 19.575C12.9625 19.8583 12 20 11 20C9.61667 20 8.31667 19.7375 7.1 19.2125C5.88333 18.6875 4.825 17.975 3.925 17.075C3.025 16.175 2.3125 15.1167 1.7875 13.9C1.2625 12.6833 1 11.3833 1 10C1 9 1.14167 8.0375 1.425 7.1125C1.70833 6.1875 2.11667 5.31667 2.65 4.5L0.375 2.225L1.8 0.8L20.2 19.2L18.775 20.625ZM19.35 15.5L17.9 14.05C18.2667 13.4167 18.5417 12.7625 18.725 12.0875C18.9083 11.4125 19 10.7167 19 10C19 7.78333 18.2208 5.89583 16.6625 4.3375C15.1042 2.77917 13.2167 2 11 2C10.2833 2 9.5875 2.09167 8.9125 2.275C8.2375 2.45833 7.58333 2.73333 6.95 3.1L5.5 1.65C6.31667 1.11667 7.1875 0.708333 8.1125 0.425C9.0375 0.141667 10 0 11 0C12.3833 0 13.6833 0.2625 14.9 0.7875C16.1167 1.3125 17.175 2.025 18.075 2.925C18.975 3.825 19.6875 4.88333 20.2125 6.1C20.7375 7.31667 21 8.61667 21 10C21 11 20.8583 11.9625 20.575 12.8875C20.2917 13.8125 19.8833 14.6833 19.35 15.5ZM15.05 16.9L9.15 11H6V9H7.15L4.1 5.95C3.73333 6.58333 3.45833 7.2375 3.275 7.9125C3.09167 8.5875 3 9.28333 3 10C3 12.2167 3.77917 14.1042 5.3375 15.6625C6.89583 17.2208 8.78333 18 11 18C11.7167 18 12.4125 17.9083 13.0875 17.725C13.7625 17.5417 14.4167 17.2667 15.05 16.9Z" fill="#5735DE"/>
</svg>
