<svg width="25" height="24" viewBox="0 0 25 24" fill="none" xmlns="http://www.w3.org/2000/svg">
<mask id="mask0_1332_11878" style="mask-type:alpha" maskUnits="userSpaceOnUse" x="0" y="0" width="25" height="24">
<rect x="0.386719" width="24" height="24" fill="#D9D9D9"/>
</mask>
<g mask="url(#mask0_1332_11878)">
<path d="M8.00209 20C7.55466 20 7.17357 19.8426 6.85882 19.5279C6.54409 19.2131 6.38672 18.832 6.38672 18.3846V5.99996H5.38672V4.99996H9.38672V4.23071H15.3867V4.99996H19.3867V5.99996H18.3867V18.3846C18.3867 18.8448 18.2326 19.2291 17.9242 19.5375C17.6159 19.8458 17.2316 20 16.7713 20H8.00209ZM17.3867 5.99996H7.38672V18.3846C7.38672 18.5641 7.44441 18.7115 7.55979 18.8269C7.67518 18.9423 7.82261 19 8.00209 19H16.7713C16.9252 19 17.0662 18.9359 17.1944 18.8077C17.3226 18.6794 17.3867 18.5384 17.3867 18.3846V5.99996ZM10.1944 17H11.1944V7.99996H10.1944V17ZM13.579 17H14.579V7.99996H13.579V17Z" fill="#1C1B1F"/>
</g>
</svg>
