<svg width="15" height="16" viewBox="0 0 15 16" fill="none" xmlns="http://www.w3.org/2000/svg">
<path d="M3.00209 16C2.55466 16 2.17357 15.8426 1.85882 15.5279C1.54409 15.2131 1.38672 14.832 1.38672 14.3846V1.99996H0.386719V0.999963H4.38672V0.230713H10.3867V0.999963H14.3867V1.99996H13.3867V14.3846C13.3867 14.8448 13.2326 15.2291 12.9242 15.5375C12.6159 15.8458 12.2316 16 11.7713 16H3.00209ZM12.3867 1.99996H2.38672V14.3846C2.38672 14.5641 2.44441 14.7115 2.55979 14.8269C2.67518 14.9423 2.82261 15 3.00209 15H11.7713C11.9252 15 12.0662 14.9359 12.1944 14.8077C12.3226 14.6794 12.3867 14.5384 12.3867 14.3846V1.99996ZM5.19439 13H6.19442V3.99996H5.19439V13ZM8.57902 13H9.57904V3.99996H8.57902V13Z" fill="#ffff"/>
</svg>