<svg width="69" height="68" viewBox="0 0 69 68" fill="none" xmlns="http://www.w3.org/2000/svg">
<mask id="mask0_3061_21032" style="mask-type:alpha" maskUnits="userSpaceOnUse" x="0" y="0" width="69" height="68">
<rect x="0.5" width="68" height="68" fill="#D9D9D9"/>
</mask>
<g mask="url(#mask0_3061_21032)">
<path d="M34.4961 38.4258C31.3812 38.4258 28.5546 39.2994 26.0164 41.0466C23.4782 42.7938 21.607 45.1077 20.4029 47.9883H48.5945C47.414 45.0605 45.5478 42.7348 42.9961 41.0112C40.4444 39.2876 37.6111 38.4258 34.4961 38.4258ZM21.607 33.2904L25.1487 30.1383L28.3008 33.2904L30.4258 30.8466L27.2383 27.6418L30.4258 24.507L28.3008 22.0279L25.1487 25.2154L21.607 22.0279L19.482 24.507L22.6695 27.6418L19.482 30.8466L21.607 33.2904ZM40.7674 33.2904L43.8487 30.1383L47.4612 33.2904L49.5862 30.8466L46.3987 27.6418L49.5862 24.507L47.4612 22.0279L43.8487 25.2154L40.7674 22.0279L38.6424 24.507L41.7591 27.6418L38.6424 30.8466L40.7674 33.2904ZM34.5032 61.9779C30.628 61.9779 26.9902 61.2431 23.5899 59.7737C20.1897 58.3042 17.2265 56.309 14.7004 53.7883C12.1743 51.2674 10.1793 48.3085 8.71536 44.9116C7.25148 41.5146 6.51953 37.8785 6.51953 34.0032C6.51953 30.128 7.25426 26.4902 8.72372 23.0899C10.1932 19.6897 12.1884 16.7265 14.7091 14.2004C17.23 11.6743 20.1889 9.67925 23.5858 8.21536C26.9828 6.75148 30.6189 6.01953 34.4942 6.01953C38.3694 6.01953 42.0072 6.75426 45.4075 8.22372C48.8077 9.69323 51.7709 11.6884 54.297 14.2091C56.8231 16.73 58.8181 19.6889 60.282 23.0858C61.7459 26.4828 62.4779 30.1189 62.4779 33.9942C62.4779 37.8694 61.7431 41.5072 60.2737 44.9075C58.8042 48.3077 56.809 51.2709 54.2883 53.797C51.7674 56.3231 48.8085 58.3181 45.4116 59.782C42.0146 61.2459 38.3785 61.9779 34.5032 61.9779Z" fill="#F14545"/>
</g>
</svg>
