<svg width="56" height="57" viewBox="0 0 56 57" fill="none" xmlns="http://www.w3.org/2000/svg">
<path d="M27.9961 32.6575C24.8812 32.6575 22.0546 33.5346 19.5164 35.2888C16.9782 37.0431 15.107 39.3663 13.9029 42.2584H42.0945C40.914 39.3189 39.0478 36.9838 36.4961 35.2533C33.9444 33.5228 31.1111 32.6575 27.9961 32.6575ZM15.107 27.5014L18.6487 24.3367L21.8008 27.5014L23.9258 25.0479L20.7383 21.8302L23.9258 18.6828L21.8008 16.1937L18.6487 19.394L15.107 16.1937L12.982 18.6828L16.1695 21.8302L12.982 25.0479L15.107 27.5014ZM34.2674 27.5014L37.3487 24.3367L40.9612 27.5014L43.0862 25.0479L39.8987 21.8302L43.0862 18.6828L40.9612 16.1937L37.3487 19.394L34.2674 16.1937L32.1424 18.6828L35.2591 21.8302L32.1424 25.0479L34.2674 27.5014ZM28.0032 56.3042C24.128 56.3042 20.4902 55.5665 17.0899 54.0911C13.6897 52.6157 10.7265 50.6126 8.20036 48.0817C5.67425 45.5507 3.67925 42.5799 2.21536 39.1693C0.751476 35.7587 0.0195312 32.108 0.0195312 28.2172C0.0195312 24.3264 0.754262 20.674 2.22372 17.2601C3.69323 13.8461 5.68837 10.871 8.20914 8.33477C10.73 5.79852 13.6889 3.79551 17.0858 2.32575C20.4828 0.855978 24.1189 0.121094 27.9942 0.121094C31.8694 0.121094 35.5072 0.858774 38.9075 2.33414C42.3077 3.80955 45.2709 5.8127 47.797 8.34359C50.3231 10.8745 52.3181 13.8453 53.782 17.2559C55.2459 20.6665 55.9779 24.3173 55.9779 28.2081C55.9779 32.0989 55.2431 35.7513 53.7737 39.1652C52.3042 42.5791 50.309 45.5542 47.7883 48.0905C45.2674 50.6267 42.3085 52.6297 38.9116 54.0995C35.5146 55.5693 31.8785 56.3042 28.0032 56.3042Z" fill="#5735DE"/>
</svg>
