<svg width="20" height="21" viewBox="0 0 20 21" fill="none" xmlns="http://www.w3.org/2000/svg">
  <path opacity="0.5" fill-rule="evenodd" clip-rule="evenodd" d="M20 10.5C20 16.023 15.523 20.5 10 20.5C4.477 20.5 0 16.023 0 10.5C0 4.977 4.477 0.5 10 0.5C15.523 0.5 20 4.977 20 10.5Z" fill="#AA96F8" />
  <path fill-rule="evenodd" clip-rule="evenodd" d="M10 3.75C10.1989 3.75 10.3897 3.82902 10.5303 3.96967C10.671 4.11032 10.75 4.30109 10.75 4.5V4.817C12.38 5.109 13.75 6.334 13.75 8C13.75 8.19891 13.671 8.38968 13.5303 8.53033C13.3897 8.67098 13.1989 8.75 13 8.75C12.8011 8.75 12.6103 8.67098 12.4697 8.53033C12.329 8.38968 12.25 8.19891 12.25 8C12.25 7.322 11.686 6.603 10.75 6.347V9.817C12.38 10.109 13.75 11.334 13.75 13C13.75 14.666 12.38 15.891 10.75 16.183V16.5C10.75 16.6989 10.671 16.8897 10.5303 17.0303C10.3897 17.171 10.1989 17.25 10 17.25C9.80109 17.25 9.61032 17.171 9.46967 17.0303C9.32902 16.8897 9.25 16.6989 9.25 16.5V16.183C7.62 15.891 6.25 14.666 6.25 13C6.25 12.8011 6.32902 12.6103 6.46967 12.4697C6.61032 12.329 6.80109 12.25 7 12.25C7.19891 12.25 7.38968 12.329 7.53033 12.4697C7.67098 12.6103 7.75 12.8011 7.75 13C7.75 13.678 8.314 14.397 9.25 14.652V11.183C7.62 10.891 6.25 9.666 6.25 8C6.25 6.334 7.62 5.109 9.25 4.817V4.5C9.25 4.30109 9.32902 4.11032 9.46967 3.96967C9.61032 3.82902 9.80109 3.75 10 3.75ZM9.25 6.347C8.314 6.603 7.75 7.322 7.75 8C7.75 8.678 8.314 9.397 9.25 9.652V6.347ZM12.25 13C12.25 12.322 11.686 11.603 10.75 11.348V14.652C11.686 14.397 12.25 13.678 12.25 13Z" fill="#5735DE" />
</svg>