<svg width="16" height="10" viewBox="0 0 16 10" fill="none" xmlns="http://www.w3.org/2000/svg">
<path d="M15.5 4.5H15V2.5C15 2.23478 14.8946 1.98043 14.7071 1.79289C14.5196 1.60536 14.2652 1.5 14 1.5H13V1C13 0.734784 12.8946 0.48043 12.7071 0.292893C12.5196 0.105357 12.2652 0 12 0H10.5C10.2348 0 9.98043 0.105357 9.79289 0.292893C9.60536 0.48043 9.5 0.734784 9.5 1V4.5H6.5V1C6.5 0.734784 6.39464 0.48043 6.20711 0.292893C6.01957 0.105357 5.76522 0 5.5 0H4C3.73478 0 3.48043 0.105357 3.29289 0.292893C3.10536 0.48043 3 0.734784 3 1V1.5H2C1.73478 1.5 1.48043 1.60536 1.29289 1.79289C1.10536 1.98043 1 2.23478 1 2.5V4.5H0.5C0.367392 4.5 0.240215 4.55268 0.146447 4.64645C0.0526784 4.74021 0 4.86739 0 5C0 5.13261 0.0526784 5.25979 0.146447 5.35355C0.240215 5.44732 0.367392 5.5 0.5 5.5H1V7.5C1 7.76522 1.10536 8.01957 1.29289 8.20711C1.48043 8.39464 1.73478 8.5 2 8.5H3V9C3 9.26522 3.10536 9.51957 3.29289 9.70711C3.48043 9.89464 3.73478 10 4 10H5.5C5.76522 10 6.01957 9.89464 6.20711 9.70711C6.39464 9.51957 6.5 9.26522 6.5 9V5.5H9.5V9C9.5 9.26522 9.60536 9.51957 9.79289 9.70711C9.98043 9.89464 10.2348 10 10.5 10H12C12.2652 10 12.5196 9.89464 12.7071 9.70711C12.8946 9.51957 13 9.26522 13 9V8.5H14C14.2652 8.5 14.5196 8.39464 14.7071 8.20711C14.8946 8.01957 15 7.76522 15 7.5V5.5H15.5C15.6326 5.5 15.7598 5.44732 15.8536 5.35355C15.9473 5.25979 16 5.13261 16 5C16 4.86739 15.9473 4.74021 15.8536 4.64645C15.7598 4.55268 15.6326 4.5 15.5 4.5ZM2 7.5V2.5H3V7.5H2ZM5.5 9H4V1H5.5V9ZM12 9H10.5V1H12V7.98875C12 7.9925 12 7.99625 12 8C12 8.00375 12 8.0075 12 8.01125V9ZM14 7.5H13V2.5H14V7.5Z" fill="#1D1D1D"/>
</svg>
