<svg width="58" height="49" viewBox="0 0 58 49" fill="none" xmlns="http://www.w3.org/2000/svg">
<path d="M5.7058 43.2499C4.27459 43.2499 3.06315 42.754 2.07148 41.7624C1.07982 40.7707 0.583984 39.5593 0.583984 38.128V5.87182C0.583984 4.44061 1.07982 3.22917 2.07148 2.2375C3.06315 1.24583 4.27459 0.75 5.7058 0.75H21.2617L26.9284 6.41667H49.2954C50.7266 6.41667 51.938 6.9125 52.9297 7.90417C53.9213 8.89583 54.4172 10.1073 54.4172 11.5385V19.5534C53.7379 19.2846 53.0368 19.1094 52.314 19.0276C51.5912 18.9459 50.8756 18.9486 50.1673 19.0358V11.5385C50.1673 11.3205 50.0764 11.1207 49.8948 10.939C49.7132 10.7574 49.5133 10.6666 49.2954 10.6666H25.1904L19.5237 4.99993H5.7058C5.45151 4.99993 5.24262 5.08167 5.07914 5.24515C4.91566 5.40864 4.83391 5.61753 4.83391 5.87182V38.128C4.83391 38.346 4.92472 38.5458 5.10634 38.7275C5.288 38.9091 5.48782 38.9999 5.7058 38.9999H27.4569L27.2826 39.1743V43.2499H5.7058ZM33.4942 48.9165V41.43L48.8759 26.1192C49.2283 25.7668 49.6097 25.5189 50.0201 25.3754C50.4306 25.232 50.841 25.1602 51.2515 25.1602C51.691 25.1602 52.1206 25.2438 52.5401 25.4108C52.9597 25.578 53.3365 25.8286 53.6707 26.1627L56.2915 28.8108C56.5967 29.1632 56.8328 29.5446 56.9998 29.955C57.167 30.3655 57.2505 30.776 57.2505 31.1864C57.2505 31.5969 57.1742 32.0146 57.0217 32.4396C56.8691 32.8646 56.6257 33.2533 56.2915 33.6056L40.9807 48.9165H33.4942ZM36.8723 45.5383H39.564L48.7615 36.2973L47.4592 34.9515L46.1407 33.622L36.8723 42.8467V45.5383ZM47.4592 34.9515L46.1407 33.622L48.7615 36.2973L47.4592 34.9515Z" fill="#5735DE"/>
</svg>
