<svg width="14" height="15" viewBox="0 0 14 15" fill="none" xmlns="http://www.w3.org/2000/svg">
<path d="M0.339844 14.9987V12.332H13.6732V14.9987H0.339844ZM3.00651 9.66537H3.93984L9.13984 4.48203L8.18984 3.53203L3.00651 8.73203V9.66537ZM1.67318 10.9987V8.16537L9.13984 0.715365C9.26206 0.593142 9.40373 0.498698 9.56484 0.432031C9.72596 0.365365 9.8954 0.332031 10.0732 0.332031C10.251 0.332031 10.4232 0.365365 10.5898 0.432031C10.7565 0.498698 10.9065 0.598698 11.0398 0.732031L11.9565 1.66536C12.0898 1.78759 12.1871 1.93203 12.2482 2.0987C12.3093 2.26536 12.3398 2.43759 12.3398 2.61536C12.3398 2.78203 12.3093 2.94592 12.2482 3.10703C12.1871 3.26814 12.0898 3.41537 11.9565 3.5487L4.50651 10.9987H1.67318Z" fill="#434343"/>
</svg>
