<svg width="20" height="13" viewBox="0 0 20 13" fill="none" xmlns="http://www.w3.org/2000/svg">
<path d="M9.9987 10.3335C11.0404 10.3335 11.9258 9.96891 12.6549 9.23975C13.3841 8.51058 13.7487 7.62516 13.7487 6.5835C13.7487 5.54183 13.3841 4.65641 12.6549 3.92725C11.9258 3.19808 11.0404 2.8335 9.9987 2.8335C8.95703 2.8335 8.07161 3.19808 7.34245 3.92725C6.61328 4.65641 6.2487 5.54183 6.2487 6.5835C6.2487 7.62516 6.61328 8.51058 7.34245 9.23975C8.07161 9.96891 8.95703 10.3335 9.9987 10.3335ZM9.9987 8.8335C9.3737 8.8335 8.84245 8.61475 8.40495 8.17725C7.96745 7.73975 7.7487 7.2085 7.7487 6.5835C7.7487 5.9585 7.96745 5.42725 8.40495 4.98975C8.84245 4.55225 9.3737 4.3335 9.9987 4.3335C10.6237 4.3335 11.1549 4.55225 11.5924 4.98975C12.0299 5.42725 12.2487 5.9585 12.2487 6.5835C12.2487 7.2085 12.0299 7.73975 11.5924 8.17725C11.1549 8.61475 10.6237 8.8335 9.9987 8.8335ZM9.9987 12.8335C7.97092 12.8335 6.1237 12.2675 4.45703 11.1356C2.79036 10.0036 1.58203 8.48627 0.832031 6.5835C1.58203 4.68072 2.79036 3.16336 4.45703 2.03141C6.1237 0.899468 7.97092 0.333496 9.9987 0.333496C12.0265 0.333496 13.8737 0.899468 15.5404 2.03141C17.207 3.16336 18.4154 4.68072 19.1654 6.5835C18.4154 8.48627 17.207 10.0036 15.5404 11.1356C13.8737 12.2675 12.0265 12.8335 9.9987 12.8335Z" fill="#5735DE"/>
</svg>
