<svg width="18" height="16" viewBox="0 0 18 16" fill="none" xmlns="http://www.w3.org/2000/svg">
<path d="M7.9991 16C7.71577 16 7.47827 15.9042 7.2866 15.7125C7.09494 15.5208 6.9991 15.2833 6.9991 15V9L1.1991 1.6C0.949104 1.26667 0.911604 0.916667 1.0866 0.55C1.2616 0.183333 1.56577 0 1.9991 0H15.9991C16.4324 0 16.7366 0.183333 16.9116 0.55C17.0866 0.916667 17.0491 1.26667 16.7991 1.6L10.9991 9V15C10.9991 15.2833 10.9033 15.5208 10.7116 15.7125C10.5199 15.9042 10.2824 16 9.9991 16H7.9991ZM8.9991 8.3L13.9491 2H4.0491L8.9991 8.3Z" fill="white"/>
</svg>
