<svg width="20" height="20" viewBox="0 0 20 20" fill="none" xmlns="http://www.w3.org/2000/svg">
<mask id="mask0_990_21634" style="mask-type:alpha" maskUnits="userSpaceOnUse" x="0" y="0" width="20" height="20">
<rect x="0.181641" y="0.181641" width="19.6364" height="19.6364" fill="#D9D9D9"/>
</mask>
<g mask="url(#mask0_990_21634)">
<path d="M9.17966 16.545C8.94785 16.545 8.75353 16.4666 8.59671 16.3098C8.43989 16.153 8.36148 15.9586 8.36148 15.7268V10.8177L3.61603 4.76319C3.41148 4.49047 3.3808 4.2041 3.52398 3.9041C3.66716 3.6041 3.91603 3.4541 4.27057 3.4541H15.7251C16.0797 3.4541 16.3285 3.6041 16.4717 3.9041C16.6149 4.2041 16.5842 4.49047 16.3797 4.76319L11.6342 10.8177V15.7268C11.6342 15.9586 11.5558 16.153 11.399 16.3098C11.2422 16.4666 11.0478 16.545 10.816 16.545H9.17966ZM9.99785 10.245L14.0478 5.09047H5.94785L9.99785 10.245Z" fill="#F2F2F2"/>
</g>
</svg>
