<svg width="32" height="32" viewBox="0 0 32 32" fill="none" xmlns="http://www.w3.org/2000/svg">
<mask id="mask0_4936_23088" style="mask-type:alpha" maskUnits="userSpaceOnUse" x="0" y="0" width="32" height="32">
<rect width="32" height="32" fill="#D9D9D9"/>
</mask>
<g mask="url(#mask0_4936_23088)">
<path d="M17.8009 16.3335C17.1565 16.3335 16.6176 16.1168 16.1842 15.6835C15.7509 15.2501 15.5342 14.7112 15.5342 14.0668C15.5342 13.4224 15.7509 12.8835 16.1842 12.4501C16.6176 12.0168 17.1565 11.8001 17.8009 11.8001C18.4454 11.8001 18.9842 12.0168 19.4176 12.4501C19.8509 12.8835 20.0676 13.4224 20.0676 14.0668C20.0676 14.7112 19.8509 15.2501 19.4176 15.6835C18.9842 16.1168 18.4454 16.3335 17.8009 16.3335ZM9.86758 20.6668C9.31758 20.6668 8.84675 20.471 8.45508 20.0793C8.06341 19.6876 7.86758 19.2168 7.86758 18.6668V9.4668C7.86758 8.9168 8.06341 8.44596 8.45508 8.0543C8.84675 7.66263 9.31758 7.4668 9.86758 7.4668H25.7342C26.2842 7.4668 26.7551 7.66263 27.1467 8.0543C27.5384 8.44596 27.7342 8.9168 27.7342 9.4668V18.6668C27.7342 19.2168 27.5384 19.6876 27.1467 20.0793C26.7551 20.471 26.2842 20.6668 25.7342 20.6668H9.86758ZM10.8009 19.7335H24.8009C24.8009 19.1779 24.9967 18.7057 25.3884 18.3168C25.7801 17.9279 26.2509 17.7335 26.8009 17.7335V10.4001C26.2454 10.4001 25.7731 10.2043 25.3842 9.81263C24.9954 9.42096 24.8009 8.95013 24.8009 8.40013H10.8009C10.8009 8.95569 10.6051 9.42791 10.2134 9.8168C9.82174 10.2057 9.35091 10.4001 8.80091 10.4001V17.7335C9.35647 17.7335 9.82869 17.9293 10.2176 18.321C10.6065 18.7126 10.8009 19.1835 10.8009 19.7335ZM23.8009 24.2668H6.26758C5.71758 24.2668 5.24674 24.071 4.85508 23.6793C4.46341 23.2876 4.26758 22.8168 4.26758 22.2668V11.4001H5.20091V22.2668C5.20091 22.5335 5.31202 22.7779 5.53424 23.0001C5.75647 23.2224 6.00091 23.3335 6.26758 23.3335H23.8009V24.2668ZM9.86758 19.7335H8.80091V8.40013H9.86758C9.57869 8.40013 9.32869 8.50569 9.11758 8.7168C8.90647 8.92791 8.80091 9.17791 8.80091 9.4668V18.6668C8.80091 18.9557 8.90647 19.2057 9.11758 19.4168C9.32869 19.6279 9.57869 19.7335 9.86758 19.7335Z" fill="#8A8A8A"/>
</g>
</svg>
