<svg width="18" height="17" viewBox="0 0 18 17" fill="none" xmlns="http://www.w3.org/2000/svg">
<path d="M1.63667 16.3667C1.18658 16.3667 0.801285 16.2064 0.480771 15.8859C0.160257 15.5654 0 15.1801 0 14.73V4.09169H1.63667V14.73H15.5483V16.3667H1.63667ZM4.91 13.0934C4.45992 13.0934 4.07462 12.9331 3.7541 12.6126C3.43359 12.2921 3.27333 11.9068 3.27333 11.4567V2.45503C3.27333 2.00494 3.43359 1.61964 3.7541 1.29913C4.07462 0.978616 4.45992 0.818359 4.91 0.818359H9.00167L10.6383 2.45503H16.3667C16.8167 2.45503 17.202 2.61528 17.5226 2.9358C17.8431 3.25631 18.0033 3.64161 18.0033 4.09169V11.4567C18.0033 11.9068 17.8431 12.2921 17.5226 12.6126C17.202 12.9331 16.8167 13.0934 16.3667 13.0934H4.91Z" fill="#5735DE"/>
</svg>
