<svg width="24" height="24" viewBox="0 0 24 24" fill="none" xmlns="http://www.w3.org/2000/svg">
<rect width="24" height="24" rx="12" fill="white"/>
<mask id="mask0_1119_17397" style="mask-type:alpha" maskUnits="userSpaceOnUse" x="2" y="2" width="20" height="20">
<rect x="2" y="2" width="20" height="20" fill="#D9D9D9"/>
</mask>
<g mask="url(#mask0_1119_17397)">
<path d="M6.16667 19.5C5.70833 19.5 5.31597 19.3368 4.98958 19.0104C4.66319 18.684 4.5 18.2917 4.5 17.8333V6.16667C4.5 5.70833 4.66319 5.31597 4.98958 4.98958C5.31597 4.66319 5.70833 4.5 6.16667 4.5H13.6667V6.16667H6.16667V17.8333H17.8333V10.3333H19.5V17.8333C19.5 18.2917 19.3368 18.684 19.0104 19.0104C18.684 19.3368 18.2917 19.5 17.8333 19.5H6.16667ZM16.1667 9.5V7.83333H14.5V6.16667H16.1667V4.5H17.8333V6.16667H19.5V7.83333H17.8333V9.5H16.1667ZM7 16.1667H17L13.875 12L11.375 15.3333L9.5 12.8333L7 16.1667Z" fill="#5735DE"/>
</g>
</svg>
