<svg width="33" height="32" viewBox="0 0 33 32" fill="none" xmlns="http://www.w3.org/2000/svg">
<mask id="mask0_4936_18093" style="mask-type:alpha" maskUnits="userSpaceOnUse" x="0" y="0" width="33" height="32">
<rect x="0.5" width="32" height="32" fill="#D9D9D9"/>
</mask>
<g mask="url(#mask0_4936_18093)">
<path d="M8.23438 27.6C7.6566 27.6 7.17882 27.4111 6.80104 27.0333C6.42326 26.6556 6.23438 26.1778 6.23438 25.6V9.06667C6.23438 8.48889 6.42326 8.01111 6.80104 7.63333C7.17882 7.25556 7.6566 7.06667 8.23438 7.06667H10.901V4H11.9677V7.06667H21.1677V4H22.101V7.06667H24.7677C25.3455 7.06667 25.8233 7.25556 26.201 7.63333C26.5788 8.01111 26.7677 8.48889 26.7677 9.06667V25.6C26.7677 26.1778 26.5788 26.6556 26.201 27.0333C25.8233 27.4111 25.3455 27.6 24.7677 27.6H8.23438ZM8.23438 26.6667H24.7677C25.0344 26.6667 25.2788 26.5556 25.501 26.3333C25.7233 26.1111 25.8344 25.8667 25.8344 25.6V14.4H7.16771V25.6C7.16771 25.8667 7.27882 26.1111 7.50104 26.3333C7.72326 26.5556 7.96771 26.6667 8.23438 26.6667ZM7.16771 13.4667H25.8344V9.06667C25.8344 8.8 25.7233 8.55556 25.501 8.33333C25.2788 8.11111 25.0344 8 24.7677 8H8.23438C7.96771 8 7.72326 8.11111 7.50104 8.33333C7.27882 8.55556 7.16771 8.8 7.16771 9.06667V13.4667ZM16.501 18.9333C16.2566 18.9333 16.0399 18.8389 15.851 18.65C15.6622 18.4611 15.5677 18.2444 15.5677 18C15.5677 17.7556 15.6622 17.5389 15.851 17.35C16.0399 17.1611 16.2566 17.0667 16.501 17.0667C16.7455 17.0667 16.9622 17.1611 17.151 17.35C17.3399 17.5389 17.4344 17.7556 17.4344 18C17.4344 18.2444 17.3399 18.4611 17.151 18.65C16.9622 18.8389 16.7455 18.9333 16.501 18.9333ZM11.1677 18.9333C10.9233 18.9333 10.7066 18.8389 10.5177 18.65C10.3288 18.4611 10.2344 18.2444 10.2344 18C10.2344 17.7556 10.3288 17.5389 10.5177 17.35C10.7066 17.1611 10.9233 17.0667 11.1677 17.0667C11.4122 17.0667 11.6288 17.1611 11.8177 17.35C12.0066 17.5389 12.101 17.7556 12.101 18C12.101 18.2444 12.0066 18.4611 11.8177 18.65C11.6288 18.8389 11.4122 18.9333 11.1677 18.9333ZM21.8344 18.9333C21.5899 18.9333 21.3733 18.8389 21.1844 18.65C20.9955 18.4611 20.901 18.2444 20.901 18C20.901 17.7556 20.9955 17.5389 21.1844 17.35C21.3733 17.1611 21.5899 17.0667 21.8344 17.0667C22.0788 17.0667 22.2955 17.1611 22.4844 17.35C22.6733 17.5389 22.7677 17.7556 22.7677 18C22.7677 18.2444 22.6733 18.4611 22.4844 18.65C22.2955 18.8389 22.0788 18.9333 21.8344 18.9333ZM16.501 24C16.2566 24 16.0399 23.9056 15.851 23.7167C15.6622 23.5278 15.5677 23.3111 15.5677 23.0667C15.5677 22.8222 15.6622 22.6056 15.851 22.4167C16.0399 22.2278 16.2566 22.1333 16.501 22.1333C16.7455 22.1333 16.9622 22.2278 17.151 22.4167C17.3399 22.6056 17.4344 22.8222 17.4344 23.0667C17.4344 23.3111 17.3399 23.5278 17.151 23.7167C16.9622 23.9056 16.7455 24 16.501 24ZM11.1677 24C10.9233 24 10.7066 23.9056 10.5177 23.7167C10.3288 23.5278 10.2344 23.3111 10.2344 23.0667C10.2344 22.8222 10.3288 22.6056 10.5177 22.4167C10.7066 22.2278 10.9233 22.1333 11.1677 22.1333C11.4122 22.1333 11.6288 22.2278 11.8177 22.4167C12.0066 22.6056 12.101 22.8222 12.101 23.0667C12.101 23.3111 12.0066 23.5278 11.8177 23.7167C11.6288 23.9056 11.4122 24 11.1677 24ZM21.8344 24C21.5899 24 21.3733 23.9056 21.1844 23.7167C20.9955 23.5278 20.901 23.3111 20.901 23.0667C20.901 22.8222 20.9955 22.6056 21.1844 22.4167C21.3733 22.2278 21.5899 22.1333 21.8344 22.1333C22.0788 22.1333 22.2955 22.2278 22.4844 22.4167C22.6733 22.6056 22.7677 22.8222 22.7677 23.0667C22.7677 23.3111 22.6733 23.5278 22.4844 23.7167C22.2955 23.9056 22.0788 24 21.8344 24Z" fill="#8A8A8A"/>
</g>
</svg>
