<svg width="12" height="12" viewBox="0 0 12 12" fill="none" xmlns="http://www.w3.org/2000/svg">
<path d="M6.57579 0.800781C7.20603 0.801823 7.52541 0.805155 7.80139 0.81337L7.91009 0.816927C8.03565 0.82139 8.15952 0.82699 8.30888 0.83399C8.9048 0.861521 9.31131 0.955795 9.66833 1.0944C10.0374 1.23673 10.3492 1.42901 10.6605 1.74029C10.9713 2.05156 11.1636 2.36424 11.3064 2.73246C11.4445 3.089 11.5388 3.49595 11.5668 4.0919C11.5735 4.24124 11.5788 4.36511 11.5833 4.4907L11.5868 4.59939C11.595 4.87533 11.5987 5.19476 11.5999 5.825L11.6003 6.24261C11.6004 6.29363 11.6004 6.34627 11.6004 6.40059L11.6003 6.55857L11.6 6.97618C11.5989 7.60642 11.5956 7.9258 11.5874 8.20178L11.5838 8.31048C11.5794 8.43604 11.5738 8.55991 11.5668 8.70927C11.5392 9.30519 11.4445 9.7117 11.3064 10.0687C11.164 10.4378 10.9713 10.7496 10.6605 11.0608C10.3492 11.3717 10.036 11.564 9.66833 11.7068C9.31131 11.8449 8.9048 11.9392 8.30888 11.9672C8.15952 11.9738 8.03565 11.9792 7.91009 11.9836L7.80139 11.9872C7.52541 11.9953 7.20603 11.9991 6.57579 12.0003L6.15818 12.0007C6.10716 12.0008 6.05452 12.0008 6.0002 12.0008L5.84222 12.0007L5.42461 12.0004C4.79437 11.9993 4.47494 11.996 4.19899 11.9878L4.09031 11.9842C3.96472 11.9798 3.84085 11.9742 3.69151 11.9672C3.09556 11.9396 2.68954 11.8449 2.33206 11.7068C1.96338 11.5644 1.65117 11.3717 1.3399 11.0608C1.02862 10.7496 0.836814 10.4364 0.694009 10.0687C0.555404 9.7117 0.461601 9.30519 0.4336 8.70927C0.426947 8.55991 0.42152 8.43604 0.417124 8.31048L0.413602 8.20178C0.405408 7.9258 0.401673 7.60642 0.400464 6.97618L0.400391 5.825C0.401432 5.19476 0.404764 4.87533 0.41298 4.59939L0.416536 4.4907C0.420999 4.36511 0.4266 4.24124 0.4336 4.0919C0.46113 3.49548 0.555404 3.08947 0.694009 2.73246C0.836343 2.36377 1.02862 2.05156 1.3399 1.74029C1.65117 1.42901 1.96385 1.2372 2.33206 1.0944C2.68908 0.955795 3.09509 0.861991 3.69151 0.83399C3.84085 0.827337 3.96472 0.821911 4.09031 0.817515L4.19899 0.813992C4.47494 0.805799 4.79437 0.802064 5.42461 0.800854L6.57579 0.800781ZM6.0002 3.60048C4.45291 3.60048 3.20009 4.85466 3.20009 6.40059C3.20009 7.94787 4.45427 9.20069 6.0002 9.20069C7.54748 9.20069 8.8003 7.94647 8.8003 6.40059C8.8003 4.8533 7.54608 3.60048 6.0002 3.60048ZM6.0002 4.72052C6.9281 4.72052 7.68026 5.47242 7.68026 6.40059C7.68026 7.32849 6.92832 8.08065 6.0002 8.08065C5.07231 8.08065 4.32013 7.32871 4.32013 6.40059C4.32013 5.4727 5.07203 4.72052 6.0002 4.72052ZM8.9403 2.76046C8.55428 2.76046 8.24028 3.07401 8.24028 3.46C8.24028 3.84599 8.55383 4.16003 8.9403 4.16003C9.32627 4.16003 9.64032 3.84648 9.64032 3.46C9.64032 3.07401 9.32576 2.75997 8.9403 2.76046Z" fill="#151515"/>
</svg>
