<svg width="30" height="32" viewBox="0 0 30 32" fill="none" xmlns="http://www.w3.org/2000/svg">
<path d="M19.2427 18.6846L15 23.1459L10.7574 18.6846C8.41421 16.2207 8.41421 12.2259 10.7574 9.76199C13.1005 7.29809 16.8995 7.29809 19.2427 9.76199C21.5858 12.2259 21.5858 16.2207 19.2427 18.6846ZM15 17.0274C16.4727 17.0274 17.6667 15.7719 17.6667 14.2233C17.6667 12.6746 16.4727 11.4192 15 11.4192C13.5272 11.4192 12.3333 12.6746 12.3333 14.2233C12.3333 15.7719 13.5272 17.0274 15 17.0274ZM15 15.6253C14.2636 15.6253 13.6667 14.9976 13.6667 14.2233C13.6667 13.449 14.2636 12.8212 15 12.8212C15.7364 12.8212 16.3333 13.449 16.3333 14.2233C16.3333 14.9976 15.7364 15.6253 15 15.6253Z" fill="#151515"/>
</svg>
