<svg width="32" height="32" viewBox="0 0 32 32" fill="none" xmlns="http://www.w3.org/2000/svg">
<mask id="mask0_4936_18088" style="mask-type:alpha" maskUnits="userSpaceOnUse" x="0" y="0" width="32" height="32">
<rect width="32" height="32" fill="#8971E8"/>
</mask>
<g mask="url(#mask0_4936_18088)">
<path d="M27.1345 14.4662V25.1329C27.1345 25.7107 26.9456 26.1884 26.5678 26.5662C26.19 26.944 25.7122 27.1329 25.1345 27.1329H6.8678C6.29002 27.1329 5.81225 26.944 5.43447 26.5662C5.05669 26.1884 4.8678 25.7107 4.8678 25.1329V14.3995C4.29002 13.9995 3.87336 13.4718 3.6178 12.8162C3.36225 12.1607 3.35669 11.4662 3.60113 10.7329L4.8678 6.53288C5.04558 5.99954 5.32336 5.58843 5.70113 5.29954C6.07891 5.01066 6.55669 4.86621 7.13447 4.86621H24.8011C25.3789 4.86621 25.8567 4.99954 26.2345 5.26621C26.6122 5.53288 26.89 5.93288 27.0678 6.46621L28.4011 10.7329C28.6456 11.4662 28.64 12.1718 28.3845 12.8495C28.1289 13.5273 27.7122 14.0662 27.1345 14.4662ZM18.9345 14.1995C19.8678 14.1995 20.5622 13.9495 21.0178 13.4495C21.4734 12.9495 21.6678 12.444 21.6011 11.9329L20.6678 5.79954H16.4678V11.5995C16.4678 12.3107 16.7122 12.9218 17.2011 13.4329C17.69 13.944 18.2678 14.1995 18.9345 14.1995ZM12.9345 14.1995C13.7122 14.1995 14.34 13.944 14.8178 13.4329C15.2956 12.9218 15.5345 12.3107 15.5345 11.5995V5.79954H11.3345L10.4011 12.0662C10.3567 12.444 10.5567 12.894 11.0011 13.4162C11.4456 13.9384 12.09 14.1995 12.9345 14.1995ZM7.00113 14.1995C7.64558 14.1995 8.19002 13.9829 8.63447 13.5495C9.07891 13.1162 9.35669 12.5773 9.4678 11.9329L10.3345 5.79954H7.13447C6.75669 5.79954 6.45669 5.88288 6.23447 6.04954C6.01225 6.21621 5.84558 6.46621 5.73447 6.79954L4.53447 10.9329C4.29002 11.7107 4.39002 12.4495 4.83447 13.1495C5.27891 13.8495 6.00113 14.1995 7.00113 14.1995ZM25.0011 14.1995C25.8456 14.1995 26.5345 13.8718 27.0678 13.2162C27.6011 12.5607 27.7345 11.7995 27.4678 10.9329L26.2011 6.73288C26.09 6.39954 25.9234 6.16066 25.7011 6.01621C25.4789 5.87177 25.1789 5.79954 24.8011 5.79954H21.6678L22.5345 11.9329C22.6456 12.5773 22.9234 13.1162 23.3678 13.5495C23.8122 13.9829 24.3567 14.1995 25.0011 14.1995ZM6.8678 26.1995H25.1345C25.4456 26.1995 25.7011 26.0995 25.9011 25.8995C26.1011 25.6995 26.2011 25.444 26.2011 25.1329V14.9329C26.0011 14.9995 25.8011 15.0495 25.6011 15.0829C25.4011 15.1162 25.2011 15.1329 25.0011 15.1329C24.4011 15.1329 23.8734 15.0107 23.4178 14.7662C22.9622 14.5218 22.5345 14.1329 22.1345 13.5995C21.8011 14.044 21.3789 14.4107 20.8678 14.6995C20.3567 14.9884 19.7122 15.1329 18.9345 15.1329C18.4234 15.1329 17.9345 15.0051 17.4678 14.7495C17.0011 14.494 16.5122 14.1107 16.0011 13.5995C15.5345 14.1107 15.0234 14.494 14.4678 14.7495C13.9122 15.0051 13.4011 15.1329 12.9345 15.1329C12.4011 15.1329 11.8678 15.0273 11.3345 14.8162C10.8011 14.6051 10.3345 14.1995 9.93447 13.5995C9.22336 14.3107 8.6178 14.744 8.1178 14.8995C7.6178 15.0551 7.24558 15.1329 7.00113 15.1329C6.80113 15.1329 6.60113 15.1162 6.40113 15.0829C6.20113 15.0495 6.00113 14.9995 5.80113 14.9329V25.1329C5.80113 25.444 5.90113 25.6995 6.10113 25.8995C6.30113 26.0995 6.55669 26.1995 6.8678 26.1995Z" fill="#8971E8"/>
</g>
</svg>
