<svg width="30" height="31" viewBox="0 0 30 31" fill="none" xmlns="http://www.w3.org/2000/svg">
<path d="M17.6667 11.8124V16.9691C17.6667 19.5209 15.7266 21.5894 13.3333 21.5894C10.9401 21.5894 9 19.5209 9 16.9691C9 14.4173 10.9401 12.3488 13.3333 12.3488C13.6775 12.3488 14.0123 12.3916 14.3333 12.4724V14.7206C14.0303 14.5671 13.6912 14.4812 13.3333 14.4812C12.0447 14.4812 11 15.5951 11 16.9691C11 18.3431 12.0447 19.457 13.3333 19.457C14.622 19.457 15.6667 18.3431 15.6667 16.9691V7.37305H17.6667C17.6667 9.33591 19.1591 10.9271 21 10.9271V13.0596C19.7387 13.0596 18.5797 12.5928 17.6667 11.8124Z" fill="#151515"/>
</svg>

