<svg width="33" height="32" viewBox="0 0 33 32" fill="none" xmlns="http://www.w3.org/2000/svg">
<mask id="mask0_4936_23098" style="mask-type:alpha" maskUnits="userSpaceOnUse" x="0" y="0" width="33" height="32">
<rect x="0.5" width="32" height="32" fill="#D9D9D9"/>
</mask>
<g mask="url(#mask0_4936_23098)">
<path d="M8.90039 23.4671C10.0337 22.6671 11.2171 22.0337 12.4504 21.5671C13.6837 21.1004 15.0337 20.8671 16.5004 20.8671C17.9671 20.8671 19.3171 21.1004 20.5504 21.5671C21.7837 22.0337 22.9671 22.6671 24.1004 23.4671C25.0115 22.5559 25.7504 21.4671 26.3171 20.2004C26.8837 18.9337 27.1671 17.5337 27.1671 16.0004C27.1671 13.0448 26.1282 10.5282 24.0504 8.45039C21.9726 6.37261 19.4559 5.33372 16.5004 5.33372C13.5448 5.33372 11.0282 6.37261 8.95039 8.45039C6.87261 10.5282 5.83372 13.0448 5.83372 16.0004C5.83372 17.5337 6.11706 18.9337 6.68372 20.2004C7.25039 21.4671 7.98928 22.5559 8.90039 23.4671ZM16.5014 16.4671C15.4341 16.4671 14.5337 16.1007 13.8004 15.3681C13.0671 14.6354 12.7004 13.7354 12.7004 12.6681C12.7004 11.6007 13.0667 10.7004 13.7994 9.96706C14.5321 9.23372 15.4321 8.86706 16.4994 8.86706C17.5667 8.86706 18.4671 9.23339 19.2004 9.96606C19.9337 10.6987 20.3004 11.5987 20.3004 12.6661C20.3004 13.7334 19.9341 14.6337 19.2014 15.3671C18.4687 16.1004 17.5687 16.4671 16.5014 16.4671ZM16.5004 27.6004C14.8782 27.6004 13.3615 27.3004 11.9504 26.7004C10.5393 26.1004 9.3115 25.2782 8.26706 24.2337C7.22261 23.1893 6.40039 21.9615 5.80039 20.5504C5.20039 19.1393 4.90039 17.6226 4.90039 16.0004C4.90039 14.3782 5.20039 12.8615 5.80039 11.4504C6.40039 10.0393 7.22261 8.8115 8.26706 7.76706C9.3115 6.72261 10.5393 5.90039 11.9504 5.30039C13.3615 4.70039 14.8782 4.40039 16.5004 4.40039C18.1226 4.40039 19.6393 4.70039 21.0504 5.30039C22.4615 5.90039 23.6893 6.72261 24.7337 7.76706C25.7782 8.8115 26.6004 10.0393 27.2004 11.4504C27.8004 12.8615 28.1004 14.3782 28.1004 16.0004C28.1004 17.6226 27.8004 19.1393 27.2004 20.5504C26.6004 21.9615 25.7782 23.1893 24.7337 24.2337C23.6893 25.2782 22.4615 26.1004 21.0504 26.7004C19.6393 27.3004 18.1226 27.6004 16.5004 27.6004ZM16.5004 26.6671C17.7448 26.6671 18.9837 26.4393 20.2171 25.9837C21.4504 25.5282 22.5004 24.9115 23.3671 24.1337C22.5004 23.4226 21.4837 22.8559 20.3171 22.4337C19.1504 22.0115 17.8782 21.8004 16.5004 21.8004C15.1226 21.8004 13.8448 22.0059 12.6671 22.4171C11.4893 22.8282 10.4782 23.4004 9.63372 24.1337C10.5004 24.9115 11.5504 25.5282 12.7837 25.9837C14.0171 26.4393 15.2559 26.6671 16.5004 26.6671ZM16.5004 15.5337C17.3004 15.5337 17.9782 15.2559 18.5337 14.7004C19.0893 14.1448 19.3671 13.4671 19.3671 12.6671C19.3671 11.8671 19.0893 11.1893 18.5337 10.6337C17.9782 10.0782 17.3004 9.80039 16.5004 9.80039C15.7004 9.80039 15.0226 10.0782 14.4671 10.6337C13.9115 11.1893 13.6337 11.8671 13.6337 12.6671C13.6337 13.4671 13.9115 14.1448 14.4671 14.7004C15.0226 15.2559 15.7004 15.5337 16.5004 15.5337Z" fill="#8A8A8A"/>
</g>
</svg>
