<svg width="32" height="32" viewBox="0 0 32 32" fill="none" xmlns="http://www.w3.org/2000/svg">
<path d="M11.5 7.8V6.2C11.5 6.08954 11.5895 6 11.7 6H13.5L14.2852 5.05771C15.1411 4.03068 16.7442 4.11632 17.4858 5.22868L18 6H19.9328C20.0433 6 20.1328 6.08954 20.1328 6.2V7.8C20.1328 7.91046 20.0433 8 19.9328 8H11.7C11.5895 8 11.5 7.91046 11.5 7.8Z" stroke="#8A8A8A"/>
<path d="M11.5 11L10 13.5" stroke="#8A8A8A" stroke-width="1.2" stroke-linecap="round"/>
<path d="M9.73588 11.2015L11.7625 13.2974" stroke="#8A8A8A" stroke-width="1.2" stroke-linecap="round"/>
<path d="M22.1523 17L20.6523 19.5" stroke="#8A8A8A" stroke-width="1.2" stroke-linecap="round"/>
<path d="M20.3882 17.2015L22.4148 19.2974" stroke="#8A8A8A" stroke-width="1.2" stroke-linecap="round"/>
<circle cx="22.5" cy="12.5" r="1.5" fill="#8A8A8A"/>
<circle cx="10.5" cy="19.5" r="1.5" fill="#8A8A8A"/>
<circle cx="18.5" cy="25.5" r="1.5" fill="#8A8A8A"/>
<path d="M20 14L14 18" stroke="#8A8A8A" stroke-width="1.2" stroke-linecap="round"/>
<path d="M12.5 21L16.5 24" stroke="#8A8A8A" stroke-width="1.2" stroke-linecap="round"/>
<g clip-path="url(#clip0_4936_23069)">
<path d="M21.8066 8.89453C21.7816 8.86952 21.7676 8.83562 21.7676 8.80026C21.7676 8.76491 21.7816 8.731 21.8066 8.70599L22.4066 8.10599C22.4316 8.081 22.4655 8.06696 22.5009 8.06696C22.5362 8.06696 22.5701 8.081 22.5951 8.10599L23.1951 8.70599C23.2194 8.73114 23.2329 8.76482 23.2326 8.79978C23.2323 8.83474 23.2182 8.86818 23.1935 8.8929C23.1688 8.91762 23.1354 8.93165 23.1004 8.93195C23.0654 8.93225 23.0318 8.91881 23.0066 8.89453L22.6342 8.53359L22.6342 9.80026C22.6342 9.83562 22.6202 9.86954 22.5952 9.89454C22.5702 9.91955 22.5362 9.93359 22.5009 9.93359C22.4655 9.93359 22.4316 9.91955 22.4066 9.89454C22.3816 9.86954 22.3675 9.83562 22.3675 9.80026L22.3675 8.53359L21.9951 8.89453C21.9701 8.91952 21.9362 8.93357 21.9009 8.93357C21.8655 8.93357 21.8316 8.91952 21.8066 8.89453Z" fill="#8A8A8A" stroke="#8A8A8A" stroke-width="0.2"/>
</g>
<path d="M13 6H9C7.89543 6 7 6.89543 7 8V28C7 29.1046 7.89543 30 9 30H23C24.1046 30 25 29.1046 25 28V8C25 6.89543 24.1046 6 23 6H20" stroke="#8A8A8A"/>
<defs>
<clipPath id="clip0_4936_23069">
<rect width="2" height="2" fill="white" transform="translate(21.5 10) rotate(-90)"/>
</clipPath>
</defs>
</svg>
