<svg width="25" height="25" viewBox="0 0 25 25" fill="none" xmlns="http://www.w3.org/2000/svg">
<mask id="mask0_3286_16206" style="mask-type:alpha" maskUnits="userSpaceOnUse" x="0" y="0" width="25" height="25">
<rect width="25" height="25" fill="#D9D9D9"/>
</mask>
<g mask="url(#mask0_3286_16206)">
<path d="M11.4596 15.6252H13.543V13.5418H15.6263V11.4585H13.543V9.37516H11.4596V11.4585H9.3763V13.5418H11.4596V15.6252ZM4.16797 19.7918V17.7085H6.2513V10.4168C6.2513 8.97586 6.68533 7.69548 7.55339 6.57568C8.42144 5.45589 9.54991 4.72239 10.9388 4.37516V3.646C10.9388 3.21197 11.0907 2.84304 11.3945 2.53923C11.6984 2.23541 12.0673 2.0835 12.5013 2.0835C12.9353 2.0835 13.3043 2.23541 13.6081 2.53923C13.9119 2.84304 14.0638 3.21197 14.0638 3.646V4.37516C15.4527 4.72239 16.5812 5.45589 17.4492 6.57568C18.3173 7.69548 18.7513 8.97586 18.7513 10.4168V17.7085H20.8346V19.7918H4.16797ZM12.5013 22.9168C11.9284 22.9168 11.4379 22.7128 11.0299 22.3049C10.622 21.8969 10.418 21.4064 10.418 20.8335H14.5846C14.5846 21.4064 14.3806 21.8969 13.9727 22.3049C13.5647 22.7128 13.0742 22.9168 12.5013 22.9168ZM8.33464 17.7085H16.668V10.4168C16.668 9.271 16.26 8.29009 15.444 7.47412C14.628 6.65815 13.6471 6.25016 12.5013 6.25016C11.3555 6.25016 10.3746 6.65815 9.55859 7.47412C8.74262 8.29009 8.33464 9.271 8.33464 10.4168V17.7085Z" fill="#5735DE"/>
</g>
</svg>
