<svg width="14" height="14" viewBox="0 0 14 14" fill="none" xmlns="http://www.w3.org/2000/svg">
<path d="M6.65234 0.897461C6.06043 0.897461 5.49365 1.11 4.36009 1.53508L2.56706 2.20748C0.855685 2.84924 0 3.17011 0 3.73562C0 4.30114 0.855686 4.62204 2.56706 5.26382L4.36009 5.93619C5.49365 6.36127 6.06043 6.5738 6.65234 6.5738C7.24426 6.5738 7.81104 6.36127 8.9446 5.93619L10.7376 5.26382C12.449 4.62204 13.3047 4.30114 13.3047 3.73562C13.3047 3.17011 12.449 2.84924 10.7376 2.20748L8.9446 1.53508C7.81104 1.11 7.24426 0.897461 6.65234 0.897461Z" fill="black"/>
<path d="M1.1299 6.03223C0.376634 6.35721 0 6.62471 0 6.99989C0 7.5654 0.855686 7.88631 2.56706 8.52808L4.36009 9.20045C5.49365 9.62553 6.06043 9.83807 6.65234 9.83807C7.24426 9.83807 7.81104 9.62553 8.94459 9.20045L10.7376 8.52808C12.449 7.88631 13.3047 7.5654 13.3047 6.99989C13.3047 6.62475 12.9281 6.35721 12.1749 6.03227L9.2074 7.14518C8.23803 7.50966 7.47124 7.79797 6.65246 7.79797C5.83365 7.79797 5.0669 7.50966 4.09749 7.14518L1.1299 6.03223Z" fill="black"/>
<path d="M1.1299 9.29639C0.376634 9.62137 0 9.88887 0 10.264C0 10.8296 0.855681 11.1505 2.56704 11.7922L4.36009 12.4646C5.49365 12.8897 6.06043 13.1022 6.65234 13.1022C7.24426 13.1022 7.81104 12.8897 8.94459 12.4646L10.7376 11.7922C12.449 11.1505 13.3047 10.8296 13.3047 10.264C13.3047 9.88891 12.9281 9.62137 12.1749 9.29643L9.2074 10.4093C8.23803 10.7738 7.47124 11.0621 6.65246 11.0621C5.83365 11.0621 5.0669 10.7738 4.09749 10.4093L1.1299 9.29639Z" fill="black"/>
</svg>
