<svg width="17" height="20" viewBox="0 0 17 20" fill="none" xmlns="http://www.w3.org/2000/svg">
<g clip-path="url(#clip0_1119_21137)">
<path d="M14.3816 1.55691C13.4588 0.505126 11.7908 0.0541992 9.65679 0.0541992H3.46341C3.25228 0.054207 3.04807 0.129533 2.8875 0.266634C2.72694 0.403736 2.62054 0.593619 2.58745 0.802146L0.00864517 17.1576C-0.0426131 17.4801 0.207122 17.7721 0.534009 17.7721H4.35759L5.31785 11.6814L5.28805 11.8721C5.35646 11.4416 5.72467 11.124 6.1607 11.124H7.97765C11.5471 11.124 14.342 9.6742 15.1584 5.48023C15.1826 5.35619 15.2036 5.23546 15.2218 5.11751C15.1187 5.06294 15.1187 5.06294 15.2218 5.11751C15.4649 3.56738 15.2201 2.51221 14.3816 1.55691Z" fill="#27346A"/>
<path d="M6.7809 4.5591C6.88543 4.50933 6.99976 4.48353 7.11553 4.4836H11.971C12.546 4.4836 13.0823 4.52102 13.5724 4.59989C13.7095 4.62176 13.8459 4.64786 13.9814 4.67817C14.1735 4.72056 14.3634 4.77243 14.5503 4.8336C14.7912 4.91407 15.0156 5.00778 15.2218 5.11751C15.4649 3.56678 15.2201 2.51221 14.3816 1.55691C13.4583 0.505126 11.7908 0.0541992 9.65679 0.0541992H3.46288C3.02679 0.0541992 2.6558 0.371683 2.58745 0.802146L0.00864554 17.157C-0.0426128 17.48 0.207122 17.7717 0.53348 17.7717H4.35759L6.34984 5.13791C6.36943 5.01373 6.41889 4.89617 6.49398 4.79534C6.56907 4.69451 6.66754 4.61344 6.7809 4.5591Z" fill="#27346A"/>
<path d="M15.1586 5.4799C14.3422 9.67328 11.5473 11.1237 7.97787 11.1237H6.16039C5.72436 11.1237 5.35608 11.4412 5.28834 11.8718L4.0937 19.4449C4.04906 19.7272 4.26734 19.9829 4.55291 19.9829H7.77608C7.96072 19.9829 8.13928 19.917 8.27965 19.797C8.42002 19.6771 8.51299 19.511 8.54185 19.3286L8.57324 19.1644L9.18072 15.3143L9.21986 15.1016C9.24871 14.9192 9.34167 14.7531 9.48203 14.6332C9.62239 14.5132 9.80093 14.4473 9.98555 14.4473H10.4679C13.5903 14.4473 16.0351 13.1788 16.7495 9.51017C17.0477 7.97706 16.8934 6.69705 16.1046 5.79798C15.8653 5.52566 15.5681 5.30076 15.222 5.11719C15.2032 5.23573 15.1829 5.35586 15.1586 5.4799Z" fill="#2790C3"/>
<path d="M14.3678 4.77671C14.2405 4.73954 14.112 4.70663 13.9825 4.67804C13.8469 4.64822 13.7105 4.6223 13.5734 4.60029C13.0828 4.52088 12.5469 4.4834 11.9714 4.4834H7.11655C7.00068 4.48314 6.88627 4.50915 6.78191 4.55949C6.66842 4.61367 6.56985 4.69469 6.49472 4.79555C6.4196 4.8964 6.3702 5.01405 6.35078 5.1383L5.31886 11.6812L5.28906 11.8719C5.35694 11.4414 5.72516 11.1239 6.16125 11.1239H7.97873C11.5481 11.1239 14.343 9.67406 15.1594 5.48009C15.1837 5.35605 15.2041 5.23585 15.2228 5.11737C15.0161 5.00824 14.7923 4.91393 14.5513 4.834C14.4905 4.81384 14.4293 4.79474 14.3679 4.77671" fill="#1F264F"/>
</g>
<defs>
<clipPath id="clip0_1119_21137">
<rect width="16.9536" height="20" fill="white"/>
</clipPath>
</defs>
</svg>
