<svg width="59" height="59" viewBox="0 0 59 59" fill="none" xmlns="http://www.w3.org/2000/svg">
<path d="M2 48.8547V42.0805C2 40.7095 2.36458 39.4495 3.09375 38.3003C3.82292 37.1511 4.79167 36.2741 6 35.6692C8.58333 34.4192 11.2083 33.4817 13.875 32.8567C16.5417 32.2317 19.25 31.9192 22 31.9192C24.75 31.9192 27.4583 32.2317 30.125 32.8567C32.7917 33.4817 35.4167 34.4192 38 35.6692C39.2083 36.2741 40.1771 37.1511 40.9062 38.3003C41.6354 39.4495 42 40.7095 42 42.0805V48.8547H2ZM47 48.8547V41.5966C47 39.8224 46.4896 38.1188 45.4688 36.4857C44.4479 34.8527 43 33.4515 41.125 32.2821C43.25 32.5241 45.25 32.9374 47.125 33.522C49 34.1067 50.75 34.8224 52.375 35.6692C53.875 36.4757 55.0208 37.3728 55.8125 38.3607C56.6042 39.3486 57 40.4273 57 41.5966V48.8547H47ZM22 29.4999C19.25 29.4999 16.8958 28.5523 14.9375 26.6571C12.9792 24.762 12 22.4837 12 19.8224C12 17.1611 12.9792 14.8829 14.9375 12.9878C16.8958 11.0926 19.25 10.145 22 10.145C24.75 10.145 27.1042 11.0926 29.0625 12.9878C31.0208 14.8829 32 17.1611 32 19.8224C32 22.4837 31.0208 24.762 29.0625 26.6571C27.1042 28.5523 24.75 29.4999 22 29.4999ZM47 19.8224C47 22.4837 46.0208 24.762 44.0625 26.6571C42.1042 28.5523 39.75 29.4999 37 29.4999C36.5417 29.4999 35.9583 29.4495 35.25 29.3486C34.5417 29.2478 33.9583 29.137 33.5 29.016C34.625 27.7257 35.4896 26.2942 36.0938 24.7216C36.6979 23.1491 37 21.516 37 19.8224C37 18.1289 36.6979 16.4958 36.0938 14.9232C35.4896 13.3507 34.625 11.9192 33.5 10.6289C34.0833 10.4273 34.6667 10.2962 35.25 10.2357C35.8333 10.1753 36.4167 10.145 37 10.145C39.75 10.145 42.1042 11.0926 44.0625 12.9878C46.0208 14.8829 47 17.1611 47 19.8224ZM7 44.016H37V42.0805C37 41.637 36.8854 41.2337 36.6562 40.8708C36.4271 40.5079 36.125 40.2257 35.75 40.0241C33.5 38.9353 31.2292 38.1188 28.9375 37.5745C26.6458 37.0301 24.3333 36.7579 22 36.7579C19.6667 36.7579 17.3542 37.0301 15.0625 37.5745C12.7708 38.1188 10.5 38.9353 8.25 40.0241C7.875 40.2257 7.57292 40.5079 7.34375 40.8708C7.11458 41.2337 7 41.637 7 42.0805V44.016ZM22 24.6611C23.375 24.6611 24.5521 24.1874 25.5312 23.2398C26.5104 22.2922 27 21.1531 27 19.8224C27 18.4918 26.5104 17.3527 25.5312 16.4051C24.5521 15.4575 23.375 14.9837 22 14.9837C20.625 14.9837 19.4479 15.4575 18.4688 16.4051C17.4896 17.3527 17 18.4918 17 19.8224C17 21.1531 17.4896 22.2922 18.4688 23.2398C19.4479 24.1874 20.625 24.6611 22 24.6611Z" fill="#5735DE"/>
</svg>
