<svg width="18" height="24" viewBox="0 0 18 24" fill="none" xmlns="http://www.w3.org/2000/svg">
<path d="M4.83203 4.10926V2.70556C4.83203 2.62271 4.89919 2.55556 4.98203 2.55556H6.53536L7.37835 1.54375C8.02024 0.773317 9.22278 0.83755 9.77894 1.67198L10.3679 2.55556H12.0343C12.1172 2.55556 12.1843 2.62271 12.1843 2.70556V4.10926C12.1843 4.1921 12.1172 4.25926 12.0343 4.25926H4.98203C4.89919 4.25926 4.83203 4.1921 4.83203 4.10926Z" stroke="#5735DE" stroke-width="1.5"/>
<path d="M4.82633 6.81494L3.54883 8.94457" stroke="#5735DE" stroke-width="1.5" stroke-linecap="round"/>
<path d="M3.32674 6.98646L5.05271 8.77189" stroke="#5735DE" stroke-width="1.5" stroke-linecap="round"/>
<path d="M13.9025 11.9258L12.625 14.0554" stroke="#5735DE" stroke-width="1.5" stroke-linecap="round"/>
<path d="M12.4029 12.0973L14.1289 13.8827" stroke="#5735DE" stroke-width="1.5" stroke-linecap="round"/>
<mask id="path-6-inside-1_4767_17437" fill="white">
<ellipse cx="14.1994" cy="8.09272" rx="1.2775" ry="1.27778"/>
</mask>
<ellipse cx="14.1994" cy="8.09272" rx="1.2775" ry="1.27778" fill="#F2F2F2"/>
<path d="M13.9769 8.09272C13.9769 7.9703 14.0762 7.8705 14.1994 7.8705V10.8705C15.7337 10.8705 16.9769 9.62654 16.9769 8.09272H13.9769ZM14.1994 7.8705C14.3226 7.8705 14.4219 7.9703 14.4219 8.09272H11.4219C11.4219 9.62654 12.6651 10.8705 14.1994 10.8705V7.8705ZM14.4219 8.09272C14.4219 8.21514 14.3226 8.31494 14.1994 8.31494V5.31494C12.6651 5.31494 11.4219 6.5589 11.4219 8.09272H14.4219ZM14.1994 8.31494C14.0762 8.31494 13.9769 8.21514 13.9769 8.09272H16.9769C16.9769 6.5589 15.7337 5.31494 14.1994 5.31494V8.31494Z" fill="#5735DE" mask="url(#path-6-inside-1_4767_17437)"/>
<mask id="path-8-inside-2_4767_17437" fill="white">
<ellipse cx="3.98062" cy="14.0556" rx="1.2775" ry="1.27778"/>
</mask>
<ellipse cx="3.98062" cy="14.0556" rx="1.2775" ry="1.27778" fill="#F2F2F2"/>
<path d="M3.75812 14.0556C3.75812 13.9332 3.85743 13.8334 3.98062 13.8334V16.8334C5.5149 16.8334 6.75812 15.5894 6.75812 14.0556H3.75812ZM3.98062 13.8334C4.10382 13.8334 4.20312 13.9332 4.20312 14.0556H1.20312C1.20312 15.5894 2.44635 16.8334 3.98062 16.8334V13.8334ZM4.20312 14.0556C4.20312 14.178 4.10382 14.2778 3.98062 14.2778V11.2778C2.44635 11.2778 1.20312 12.5218 1.20312 14.0556H4.20312ZM3.98062 14.2778C3.85743 14.2778 3.75812 14.178 3.75812 14.0556H6.75812C6.75812 12.5218 5.5149 11.2778 3.98062 11.2778V14.2778Z" fill="#5735DE" mask="url(#path-8-inside-2_4767_17437)"/>
<mask id="path-10-inside-3_4767_17437" fill="white">
<ellipse cx="10.7931" cy="19.1665" rx="1.2775" ry="1.27778"/>
</mask>
<ellipse cx="10.7931" cy="19.1665" rx="1.2775" ry="1.27778" fill="#F2F2F2"/>
<path d="M10.5706 19.1664C10.5706 19.044 10.6699 18.9442 10.7931 18.9442V21.9442C12.3274 21.9442 13.5706 20.7003 13.5706 19.1664H10.5706ZM10.7931 18.9442C10.9163 18.9442 11.0156 19.044 11.0156 19.1664H8.01562C8.01562 20.7003 9.25885 21.9442 10.7931 21.9442V18.9442ZM11.0156 19.1664C11.0156 19.2889 10.9163 19.3887 10.7931 19.3887V16.3887C9.25885 16.3887 8.01562 17.6326 8.01562 19.1664H11.0156ZM10.7931 19.3887C10.6699 19.3887 10.5706 19.2889 10.5706 19.1664H13.5706C13.5706 17.6326 12.3274 16.3887 10.7931 16.3887V19.3887Z" fill="#5735DE" mask="url(#path-10-inside-3_4767_17437)"/>
<path d="M12.0709 9.37061L6.96094 12.778" stroke="#5735DE" stroke-width="1.5" stroke-linecap="round"/>
<path d="M5.68359 15.3335L9.09026 17.8891" stroke="#5735DE" stroke-width="1.5" stroke-linecap="round"/>
<g clip-path="url(#clip0_4767_17437)">
<path d="M13.6055 5.02014C13.5842 4.99884 13.5723 4.96996 13.5723 4.93984C13.5723 4.90972 13.5842 4.88084 13.6055 4.85954L14.1165 4.34843C14.1378 4.32714 14.1667 4.31517 14.1968 4.31517C14.2269 4.31517 14.2558 4.32714 14.2771 4.34843L14.7881 4.85954C14.8088 4.88096 14.8202 4.90965 14.82 4.93943C14.8197 4.96921 14.8078 4.9977 14.7867 5.01876C14.7656 5.03982 14.7372 5.05176 14.7074 5.05202C14.6776 5.05228 14.6489 5.04083 14.6275 5.02014L14.3104 4.71268L14.3104 5.79169C14.3104 5.82182 14.2984 5.85071 14.2771 5.87201C14.2558 5.89331 14.2269 5.90527 14.1968 5.90527C14.1667 5.90527 14.1378 5.89331 14.1165 5.87201C14.0952 5.85071 14.0832 5.82182 14.0832 5.79169L14.0832 4.71268L13.7661 5.02014C13.7448 5.04144 13.7159 5.0534 13.6858 5.0534C13.6557 5.0534 13.6268 5.04144 13.6055 5.02014Z" fill="#F2F2F2" stroke="#F2F2F2" stroke-width="0.15"/>
</g>
<rect x="13.7735" y="5.53706" width="0.852037" height="0.851667" transform="rotate(-90 13.7735 5.53706)" stroke="#5735DE" stroke-width="0.851667"/>
<path d="M6.11 2.55518H2.5C1.67157 2.55518 1 3.22675 1 4.05517V21.4996C1 22.328 1.67157 22.9996 2.5 22.9996H14.83C15.6584 22.9996 16.33 22.328 16.33 21.4996V4.05518C16.33 3.22675 15.6584 2.55518 14.83 2.55518H12.0717" stroke="#5735DE" stroke-width="1.5"/>
<defs>
<clipPath id="clip0_4767_17437">
<rect x="13.3477" y="5.96289" width="1.7037" height="1.70333" transform="rotate(-90 13.3477 5.96289)" fill="white"/>
</clipPath>
</defs>
</svg>
