<svg width="12" height="12" viewBox="0 0 12 12" fill="none" xmlns="http://www.w3.org/2000/svg">
<path d="M11.0285 11.718L6.8413 7.53085C6.50796 7.80606 6.12463 8.02144 5.6913 8.177C5.25796 8.33255 4.80968 8.41033 4.34643 8.41033C3.20699 8.41033 2.24264 8.01581 1.4534 7.22677C0.664153 6.43772 0.269531 5.47363 0.269531 4.33448C0.269531 3.19533 0.664053 2.23088 1.4531 1.44113C2.24214 0.651397 3.20624 0.256531 4.3454 0.256531C5.48454 0.256531 6.44899 0.651154 7.23873 1.4404C8.02848 2.22964 8.42335 3.19399 8.42335 4.33343C8.42335 4.8095 8.34343 5.2642 8.1836 5.69753C8.02376 6.13087 7.81051 6.50779 7.54385 6.8283L11.731 11.0155L11.0285 11.718ZM4.34643 7.41037C5.20541 7.41037 5.93297 7.11229 6.52913 6.51613C7.12529 5.91998 7.42336 5.19241 7.42336 4.33343C7.42336 3.47445 7.12529 2.74689 6.52913 2.15073C5.93297 1.55458 5.20541 1.2565 4.34643 1.2565C3.48745 1.2565 2.75989 1.55458 2.16373 2.15073C1.56759 2.74689 1.26951 3.47445 1.26951 4.33343C1.26951 5.19241 1.56759 5.91998 2.16373 6.51613C2.75989 7.11229 3.48745 7.41037 4.34643 7.41037Z" fill="#202020"/>
</svg>
