<svg width="12" height="12" viewBox="0 0 12 12" fill="none" xmlns="http://www.w3.org/2000/svg">
<path d="M11.0285 11.7183L6.8413 7.53115C6.50796 7.80636 6.12463 8.02175 5.6913 8.1773C5.25796 8.33286 4.80968 8.41064 4.34643 8.41064C3.20699 8.41064 2.24264 8.01612 1.4534 7.22707C0.664153 6.43803 0.269531 5.47393 0.269531 4.33479C0.269531 3.19563 0.664054 2.23118 1.4531 1.44144C2.24214 0.651702 3.20624 0.256836 4.3454 0.256836C5.48454 0.256836 6.44899 0.651459 7.23873 1.4407C8.02848 2.22995 8.42335 3.19429 8.42335 4.33374C8.42335 4.8098 8.34343 5.2645 8.1836 5.69784C8.02376 6.13117 7.81051 6.50809 7.54385 6.8286L11.731 11.0158L11.0285 11.7183ZM4.34643 7.41067C5.20541 7.41067 5.93297 7.11259 6.52913 6.51644C7.12529 5.92028 7.42336 5.19271 7.42336 4.33374C7.42336 3.47476 7.12529 2.74719 6.52913 2.15104C5.93297 1.55488 5.20541 1.2568 4.34643 1.2568C3.48745 1.2568 2.75989 1.55488 2.16373 2.15104C1.56759 2.74719 1.26951 3.47476 1.26951 4.33374C1.26951 5.19271 1.56759 5.92028 2.16373 6.51644C2.75989 7.11259 3.48745 7.41067 4.34643 7.41067Z" fill="#F2F2F2"/>
</svg>
