<svg width="39" height="56" viewBox="0 0 39 56" fill="none" xmlns="http://www.w3.org/2000/svg">
<path d="M10.3594 9.84375V6.59375C10.3594 6.36938 10.5413 6.1875 10.7656 6.1875H14.4219L16.0169 4.27347C17.7554 2.18733 21.0117 2.36128 22.518 4.62075L23.5625 6.1875H27.4885C27.7129 6.1875 27.8948 6.36938 27.8948 6.59375V9.84375C27.8948 10.0681 27.7129 10.25 27.4885 10.25H10.7656C10.5413 10.25 10.3594 10.0681 10.3594 9.84375Z" stroke="#5735DE" stroke-width="2.03125"/>
<path d="M10.3613 16.3438L7.31445 21.4219" stroke="#5735DE" stroke-width="2.4375" stroke-linecap="round"/>
<path d="M6.77687 16.7542L10.8934 21.0116" stroke="#5735DE" stroke-width="2.4375" stroke-linecap="round"/>
<path d="M31.998 28.5312L28.9512 33.6094" stroke="#5735DE" stroke-width="2.4375" stroke-linecap="round"/>
<path d="M28.4136 28.9417L32.5301 33.1991" stroke="#5735DE" stroke-width="2.4375" stroke-linecap="round"/>
<circle cx="32.7031" cy="19.3906" r="3.04688" fill="#8971E8"/>
<circle cx="8.32812" cy="33.6094" r="3.04688" fill="#8971E8"/>
<circle cx="24.5781" cy="45.7969" r="3.04688" fill="#8971E8"/>
<path d="M27.625 22.4375L15.4375 30.5625" stroke="#5735DE" stroke-width="2.4375" stroke-linecap="round"/>
<path d="M12.3906 36.6562L20.5156 42.75" stroke="#5735DE" stroke-width="2.4375" stroke-linecap="round"/>
<g clip-path="url(#clip0_1125_22766)">
<path d="M31.2941 12.0662C31.2434 12.0154 31.2148 11.9465 31.2148 11.8747C31.2148 11.8029 31.2434 11.734 31.2941 11.6832L32.5129 10.4644C32.5637 10.4137 32.6326 10.3851 32.7044 10.3851C32.7762 10.3851 32.8451 10.4137 32.8958 10.4644L34.1146 11.6832C34.1639 11.7343 34.1912 11.8027 34.1906 11.8737C34.19 11.9447 34.1615 12.0126 34.1113 12.0629C34.0611 12.1131 33.9932 12.1416 33.9221 12.1422C33.8511 12.1428 33.7827 12.1155 33.7316 12.0662L32.9752 11.333L32.9752 13.9059C32.9752 13.9778 32.9467 14.0466 32.8959 14.0974C32.8451 14.1482 32.7762 14.1768 32.7044 14.1768C32.6325 14.1768 32.5637 14.1482 32.5129 14.0974C32.4621 14.0466 32.4335 13.9778 32.4335 13.9059L32.4335 11.333L31.6771 12.0662C31.6263 12.1169 31.5574 12.1454 31.4856 12.1454C31.4138 12.1454 31.3449 12.1169 31.2941 12.0662Z" fill="#8971E8" stroke="#8971E8" stroke-width="0.40625"/>
</g>
<path d="M13.4062 6.1875H5.28125C3.03759 6.1875 1.21875 8.00634 1.21875 10.25V50.875C1.21875 53.1187 3.03759 54.9375 5.28125 54.9375H33.7187C35.9624 54.9375 37.7812 53.1187 37.7812 50.875V10.25C37.7812 8.00634 35.9624 6.1875 33.7188 6.1875H27.625" stroke="#5735DE" stroke-width="2.03125"/>
<defs>
<clipPath id="clip0_1125_22766">
<rect width="4.0625" height="4.0625" fill="white" transform="translate(30.6719 14.3125) rotate(-90)"/>
</clipPath>
</defs>
</svg>
