<svg width="32" height="32" viewBox="0 0 32 32" fill="none" xmlns="http://www.w3.org/2000/svg">
<mask id="mask0_4936_23103" style="mask-type:alpha" maskUnits="userSpaceOnUse" x="0" y="0" width="32" height="32">
<rect width="32" height="32" fill="#D9D9D9"/>
</mask>
<g mask="url(#mask0_4936_23103)">
<path d="M13.8672 27.6004L13.4005 23.8671C12.9339 23.7337 12.4172 23.5115 11.8505 23.2004C11.2839 22.8893 10.8116 22.5559 10.4339 22.2004L7.00052 23.6671L4.86719 19.9337L7.83385 17.7004C7.78941 17.4337 7.75052 17.1559 7.71719 16.8671C7.68385 16.5782 7.66719 16.3004 7.66719 16.0337C7.66719 15.7893 7.68385 15.5282 7.71719 15.2504C7.75052 14.9726 7.78941 14.6559 7.83385 14.3004L4.86719 12.0671L7.00052 8.40039L10.4005 9.83372C10.845 9.45595 11.3283 9.11706 11.8505 8.81706C12.3727 8.51706 12.8783 8.28928 13.3672 8.13372L13.8672 4.40039H18.1339L18.6005 8.16706C19.1783 8.36706 19.6839 8.59483 20.1172 8.85039C20.5505 9.10595 21.0005 9.43372 21.4672 9.83372L25.0005 8.40039L27.1339 12.0671L24.0339 14.4004C24.1227 14.7115 24.1727 14.9948 24.1839 15.2504C24.195 15.5059 24.2005 15.7559 24.2005 16.0004C24.2005 16.2226 24.1894 16.4615 24.1672 16.7171C24.145 16.9726 24.1005 17.2893 24.0339 17.6671L27.0672 19.9337L24.9339 23.6671L21.4672 22.1671C21.0005 22.5671 20.5339 22.9059 20.0672 23.1837C19.6005 23.4615 19.1116 23.6782 18.6005 23.8337L18.1339 27.6004H13.8672ZM14.6672 26.6671H17.2672L17.7672 23.0337C18.4339 22.8559 19.0283 22.6171 19.5505 22.3171C20.0727 22.0171 20.6227 21.5893 21.2005 21.0337L24.5339 22.4671L25.8672 20.2004L22.9339 18.0004C23.045 17.6004 23.1172 17.2448 23.1505 16.9337C23.1839 16.6226 23.2005 16.3115 23.2005 16.0004C23.2005 15.6671 23.1839 15.3559 23.1505 15.0671C23.1172 14.7782 23.045 14.4448 22.9339 14.0671L25.9339 11.8004L24.6005 9.53372L21.1672 10.9671C20.7894 10.5448 20.2616 10.1337 19.5839 9.73372C18.9061 9.33372 18.2894 9.07817 17.7339 8.96706L17.3339 5.33372H14.6672L14.2672 8.93372C13.6005 9.06706 12.9894 9.28928 12.4339 9.60039C11.8783 9.9115 11.3116 10.3559 10.7339 10.9337L7.40052 9.53372L6.06719 11.8004L8.96719 13.9671C8.85608 14.2559 8.7783 14.5782 8.73385 14.9337C8.68941 15.2893 8.66719 15.6559 8.66719 16.0337C8.66719 16.3671 8.68941 16.7004 8.73385 17.0337C8.7783 17.3671 8.84497 17.6893 8.93385 18.0004L6.06719 20.2004L7.40052 22.4671L10.7005 21.0671C11.2339 21.6004 11.7783 22.0226 12.3339 22.3337C12.8894 22.6448 13.5227 22.8893 14.2339 23.0671L14.6672 26.6671ZM15.9339 18.9337C16.7561 18.9337 17.4505 18.6504 18.0172 18.0837C18.5839 17.5171 18.8672 16.8226 18.8672 16.0004C18.8672 15.1782 18.5839 14.4837 18.0172 13.9171C17.4505 13.3504 16.7561 13.0671 15.9339 13.0671C15.1116 13.0671 14.4172 13.3504 13.8505 13.9171C13.2839 14.4837 13.0005 15.1782 13.0005 16.0004C13.0005 16.8226 13.2839 17.5171 13.8505 18.0837C14.4172 18.6504 15.1116 18.9337 15.9339 18.9337Z" fill="#8A8A8A"/>
</g>
</svg>
