<svg width="40" height="59" viewBox="0 0 40 59" fill="none" xmlns="http://www.w3.org/2000/svg">
<path d="M10.5 10.9056V6.98333C10.5 6.90049 10.5672 6.83333 10.65 6.83333H14.7222L18.7139 2.04328C19.3558 1.27301 20.5582 1.33724 21.1143 2.17151L24.2222 6.83333H28.5748C28.6577 6.83333 28.7248 6.90049 28.7248 6.98333V10.9056C28.7248 10.9884 28.6577 11.0556 28.5748 11.0556H10.65C10.5672 11.0556 10.5 10.9884 10.5 10.9056Z" stroke="#5735DE" stroke-width="1.5"/>
<path d="M10.4909 17.3887L7.32422 22.6664" stroke="#5735DE" stroke-width="1.5" stroke-linecap="round"/>
<path d="M6.77272 17.8138L11.0511 22.2385" stroke="#5735DE" stroke-width="1.5" stroke-linecap="round"/>
<path d="M32.9831 30.0557L29.8164 35.3334" stroke="#5735DE" stroke-width="1.5" stroke-linecap="round"/>
<path d="M29.2649 30.4803L33.5433 34.9051" stroke="#5735DE" stroke-width="1.5" stroke-linecap="round"/>
<circle cx="33.7214" cy="20.5558" r="2.41667" fill="#F2F2F2" stroke="#5735DE" stroke-width="1.5"/>
<circle cx="8.38932" cy="35.3332" r="2.41667" fill="#F2F2F2" stroke="#5735DE" stroke-width="1.5"/>
<circle cx="25.276" cy="48.0002" r="2.41667" fill="#F2F2F2" stroke="#5735DE" stroke-width="1.5"/>
<path d="M28.444 23.7222L15.7773 32.1666" stroke="#5735DE" stroke-width="1.5" stroke-linecap="round"/>
<path d="M12.6094 38.5L21.0538 44.8333" stroke="#5735DE" stroke-width="1.5" stroke-linecap="round"/>
<g clip-path="url(#clip0_1421_25150)">
<path d="M32.2504 12.9417C32.1976 12.8889 32.168 12.8173 32.168 12.7427C32.168 12.668 32.1976 12.5964 32.2504 12.5437L33.517 11.277C33.5698 11.2242 33.6414 11.1946 33.7161 11.1946C33.7907 11.1946 33.8623 11.2242 33.9151 11.277L35.1817 12.5437C35.233 12.5967 35.2614 12.6678 35.2607 12.7416C35.2601 12.8155 35.2305 12.8861 35.1783 12.9382C35.1261 12.9904 35.0555 13.02 34.9817 13.0207C34.9079 13.0213 34.8368 12.9929 34.7837 12.9417L33.9975 12.1797L33.9975 14.8538C33.9975 14.9284 33.9679 15 33.9151 15.0528C33.8623 15.1056 33.7907 15.1353 33.7161 15.1353C33.6414 15.1353 33.5698 15.1056 33.517 15.0528C33.4642 15 33.4346 14.9284 33.4346 14.8538L33.4346 12.1797L32.6484 12.9417C32.5956 12.9944 32.524 13.0241 32.4494 13.0241C32.3748 13.0241 32.3032 12.9944 32.2504 12.9417Z" fill="#F2F2F2" stroke="#F2F2F2" stroke-width="0.15"/>
</g>
<rect x="32.3594" y="14.5278" width="2.72222" height="2.72222" transform="rotate(-90 32.3594 14.5278)" stroke="#5735DE" stroke-width="1.5"/>
<path d="M13.6667 6.8335H2.5C1.67157 6.8335 1 7.50507 1 8.3335V56.0002C1 56.8286 1.67157 57.5002 2.5 57.5002H37.5C38.3284 57.5002 39 56.8286 39 56.0002V8.3335C39 7.50507 38.3284 6.8335 37.5 6.8335H28.4444" stroke="#5735DE" stroke-width="1.5"/>
<defs>
<clipPath id="clip0_1421_25150">
<rect x="31.6094" y="15.2778" width="4.22222" height="4.22222" transform="rotate(-90 31.6094 15.2778)" fill="white"/>
</clipPath>
</defs>
</svg>
