<svg width="12" height="12" viewBox="0 0 12 12" fill="none" xmlns="http://www.w3.org/2000/svg">
<mask id="mask0_753_30775" style="mask-type:alpha" maskUnits="userSpaceOnUse" x="0" y="0" width="12" height="12">
<rect width="12" height="12" fill="#D9D9D9"/>
</mask>
<g mask="url(#mask0_753_30775)">
<path d="M5.5 4.5V3H4V2H5.5V0.5H6.5V2H8V3H6.5V4.5H5.5ZM3.5 11C3.225 11 2.98958 10.9021 2.79375 10.7063C2.59792 10.5104 2.5 10.275 2.5 10C2.5 9.725 2.59792 9.48958 2.79375 9.29375C2.98958 9.09792 3.225 9 3.5 9C3.775 9 4.01042 9.09792 4.20625 9.29375C4.40208 9.48958 4.5 9.725 4.5 10C4.5 10.275 4.40208 10.5104 4.20625 10.7063C4.01042 10.9021 3.775 11 3.5 11ZM8.5 11C8.225 11 7.98958 10.9021 7.79375 10.7063C7.59792 10.5104 7.5 10.275 7.5 10C7.5 9.725 7.59792 9.48958 7.79375 9.29375C7.98958 9.09792 8.225 9 8.5 9C8.775 9 9.01042 9.09792 9.20625 9.29375C9.40208 9.48958 9.5 9.725 9.5 10C9.5 10.275 9.40208 10.5104 9.20625 10.7063C9.01042 10.9021 8.775 11 8.5 11ZM3.5 8.5C3.125 8.5 2.8375 8.33542 2.6375 8.00625C2.4375 7.67708 2.43333 7.35 2.625 7.025L3.3 5.8L1.5 2H0.5V1H2.1375L4.2625 5.5H7.775L9.7125 2L10.5875 2.475L8.65 5.975C8.55833 6.14167 8.4375 6.27083 8.2875 6.3625C8.1375 6.45417 7.96667 6.5 7.775 6.5H4.05L3.5 7.5H9.5V8.5H3.5Z" fill="white"/>
</g>
</svg>
