<svg width="15" height="15" viewBox="0 0 15 15" fill="none" xmlns="http://www.w3.org/2000/svg">
<path fill-rule="evenodd" clip-rule="evenodd" d="M1.32712 9.75333C-0.546216 5.15583 2.83628 0.125 7.80045 0.125H8.06795C8.95087 0.125 9.82515 0.298904 10.6409 0.636783C11.4566 0.974662 12.1977 1.4699 12.8221 2.09422C13.4464 2.71854 13.9416 3.45971 14.2795 4.27542C14.6174 5.09114 14.7913 5.96541 14.7913 6.84833C14.7913 8.83348 14.0027 10.7373 12.599 12.141C11.1953 13.5447 9.29143 14.3333 7.30628 14.3333H0.789617C0.660134 14.3334 0.533812 14.2933 0.428106 14.2186C0.3224 14.1438 0.24253 14.038 0.199531 13.9159C0.156532 13.7937 0.152528 13.6613 0.188072 13.5368C0.223616 13.4123 0.296954 13.3019 0.397951 13.2208L2.04045 11.9017C2.07557 11.8735 2.10064 11.8348 2.1119 11.7912C2.12317 11.7477 2.12003 11.7016 2.10295 11.66L1.32712 9.75333ZM7.80045 1.375C3.72295 1.375 0.945451 5.50583 2.48378 9.28167L3.26045 11.1892C3.37879 11.4799 3.40013 11.8011 3.32131 12.105C3.24248 12.4089 3.0677 12.6792 2.82295 12.8758L2.56545 13.0833H7.30628C8.95991 13.0833 10.5458 12.4264 11.7151 11.2571C12.8844 10.0879 13.5413 8.50196 13.5413 6.84833C13.5413 5.39671 12.9646 4.00455 11.9382 2.9781C10.9117 1.95165 9.51957 1.375 8.06795 1.375H7.80045Z" fill="black"/>
</svg>
