<svg width="10" height="12" viewBox="0 0 10 12" fill="none" xmlns="http://www.w3.org/2000/svg">
<path d="M7.13255 4.09702V8.15961C7.13255 10.17 5.5805 11.7996 3.66589 11.7996C1.7513 11.7996 0.199219 10.17 0.199219 8.15961C0.199219 6.14927 1.7513 4.51961 3.66589 4.51961C3.94125 4.51961 4.20909 4.55332 4.46589 4.61701V6.38822C4.22343 6.26726 3.95218 6.19961 3.66589 6.19961C2.63495 6.19961 1.79922 7.07713 1.79922 8.15961C1.79922 9.24209 2.63495 10.1196 3.66589 10.1196C4.69682 10.1196 5.53255 9.24209 5.53255 8.15961V0.599609H7.13255C7.13255 2.146 8.32647 3.39961 9.79922 3.39961V5.07961C8.79021 5.07961 7.86301 4.71185 7.13255 4.09702Z" fill="#151515"/>
</svg>
