<svg width="14" height="14" viewBox="0 0 14 14" fill="none" xmlns="http://www.w3.org/2000/svg">
<path d="M9.31473 10.0178L10.0173 9.31522L7.49932 6.7971V3.66649H6.49935V7.20239L9.31473 10.0178ZM7.00045 13.3331C6.12449 13.3331 5.30114 13.1669 4.53038 12.8345C3.75962 12.502 3.08916 12.0509 2.51902 11.481C1.94886 10.9111 1.49749 10.2409 1.1649 9.47049C0.83231 8.70008 0.666016 7.87689 0.666016 7.00094C0.666016 6.12498 0.832238 5.30163 1.16468 4.53087C1.49713 3.7601 1.94829 3.08965 2.51818 2.5195C3.08808 1.94935 3.75824 1.49798 4.52867 1.16539C5.29908 0.832799 6.12226 0.666504 6.99822 0.666504C7.87417 0.666504 8.69753 0.832727 9.46828 1.16517C10.239 1.49762 10.9095 1.94878 11.4796 2.51867C12.0498 3.08857 12.5012 3.75873 12.8338 4.52915C13.1664 5.29957 13.3327 6.12275 13.3327 6.9987C13.3327 7.87466 13.1664 8.69802 12.834 9.46877C12.5015 10.2395 12.0504 10.91 11.4805 11.4801C10.9106 12.0503 10.2404 12.5017 9.47 12.8343C8.69959 13.1668 7.8764 13.3331 7.00045 13.3331Z" fill="white"/>
</svg>
