<svg width="28" height="27" viewBox="0 0 28 27" fill="none" xmlns="http://www.w3.org/2000/svg">
<mask id="mask0_990_21694" style="mask-type:alpha" maskUnits="userSpaceOnUse" x="0" y="0" width="28" height="27">
<rect x="0.957031" width="26.0871" height="26.0871" fill="#D9D9D9"/>
</mask>
<g mask="url(#mask0_990_21694)">
<path d="M8.02127 21.7406C6.37271 21.7406 4.96419 21.1699 3.7957 20.0286C2.62721 18.8873 2.04297 17.4923 2.04297 15.8438C2.04297 14.4307 2.4687 13.1716 3.32015 12.0666C4.17161 10.9615 5.28575 10.255 6.66257 9.94699C7.11547 8.28031 8.02127 6.93066 9.37998 5.89805C10.7387 4.86543 12.2786 4.34912 13.9996 4.34912C16.1192 4.34912 17.9172 5.08735 19.3936 6.56381C20.8701 8.04027 21.6083 9.83829 21.6083 11.9579C22.8583 12.1028 23.8955 12.6418 24.7198 13.5747C25.544 14.5077 25.9562 15.5992 25.9562 16.8492C25.9562 18.2079 25.4806 19.3628 24.5295 20.3139C23.5785 21.265 22.4236 21.7406 21.0648 21.7406H15.0865C14.4887 21.7406 13.9769 21.5277 13.5512 21.102C13.1255 20.6762 12.9126 20.1645 12.9126 19.5666V13.9688L11.1735 15.6536L9.65172 14.1318L13.9996 9.78394L18.3474 14.1318L16.8257 15.6536L15.0865 13.9688V19.5666H21.0648C21.8257 19.5666 22.4688 19.3039 22.9942 18.7786C23.5196 18.2532 23.7823 17.6101 23.7823 16.8492C23.7823 16.0883 23.5196 15.4452 22.9942 14.9199C22.4688 14.3945 21.8257 14.1318 21.0648 14.1318H19.4344V11.9579C19.4344 10.4542 18.9045 9.17253 17.8447 8.11274C16.7849 7.05295 15.5032 6.52305 13.9996 6.52305C12.4959 6.52305 11.2142 7.05295 10.1544 8.11274C9.09465 9.17253 8.56476 10.4542 8.56476 11.9579H8.02127C6.97054 11.9579 6.0738 12.3293 5.33104 13.072C4.58828 13.8148 4.2169 14.7115 4.2169 15.7622C4.2169 16.813 4.58828 17.7097 5.33104 18.4525C6.0738 19.1952 6.97054 19.5666 8.02127 19.5666H10.7387V21.7406H8.02127Z" fill="#5735DE"/>
</g>
</svg>
