<svg width="13" height="13" viewBox="0 0 13 13" fill="none" xmlns="http://www.w3.org/2000/svg">
<mask id="mask0_753_30885" style="mask-type:alpha" maskUnits="userSpaceOnUse" x="0" y="0" width="13" height="13">
<rect x="0.285156" y="0.153076" width="12.7144" height="12.7144" fill="#D9D9D9"/>
</mask>
<g mask="url(#mask0_753_30885)">
<path d="M0.816406 10.7485V9.26511C0.816406 8.96491 0.893664 8.68899 1.04818 8.43736C1.20269 8.18572 1.40798 7.99368 1.66403 7.86124C2.21145 7.58752 2.76771 7.38224 3.33279 7.24538C3.89787 7.10853 4.47178 7.0401 5.05452 7.0401C5.63727 7.0401 6.21118 7.10853 6.77626 7.24538C7.34134 7.38224 7.8976 7.58752 8.44502 7.86124C8.70107 7.99368 8.90636 8.18572 9.06087 8.43736C9.21539 8.68899 9.29264 8.96491 9.29264 9.26511V10.7485H0.816406ZM10.3522 10.7485V9.15916C10.3522 8.77067 10.244 8.39762 10.0277 8.04003C9.81137 7.68244 9.50455 7.37562 9.10723 7.11957C9.55753 7.17254 9.98134 7.26304 10.3787 7.39107C10.776 7.5191 11.1468 7.67582 11.4912 7.86124C11.809 8.03782 12.0518 8.23428 12.2196 8.4506C12.3874 8.66692 12.4712 8.90311 12.4712 9.15916V10.7485H10.3522ZM5.05452 6.51034C4.47178 6.51034 3.97292 6.30284 3.55794 5.88786C3.14296 5.47288 2.93547 4.97402 2.93547 4.39128C2.93547 3.80853 3.14296 3.30967 3.55794 2.89469C3.97292 2.47971 4.47178 2.27222 5.05452 2.27222C5.63727 2.27222 6.13613 2.47971 6.55111 2.89469C6.96609 3.30967 7.17358 3.80853 7.17358 4.39128C7.17358 4.97402 6.96609 5.47288 6.55111 5.88786C6.13613 6.30284 5.63727 6.51034 5.05452 6.51034ZM10.3522 4.39128C10.3522 4.97402 10.1447 5.47288 9.7297 5.88786C9.31472 6.30284 8.81586 6.51034 8.23311 6.51034C8.13599 6.51034 8.01238 6.4993 7.86228 6.47723C7.71218 6.45515 7.58857 6.43087 7.49144 6.40438C7.72984 6.12184 7.91305 5.8084 8.04107 5.46405C8.1691 5.1197 8.23311 4.76211 8.23311 4.39128C8.23311 4.02044 8.1691 3.66285 8.04107 3.3185C7.91305 2.97416 7.72984 2.66071 7.49144 2.37817C7.61506 2.33402 7.73867 2.30533 7.86228 2.29208C7.98589 2.27884 8.1095 2.27222 8.23311 2.27222C8.81586 2.27222 9.31472 2.47971 9.7297 2.89469C10.1447 3.30967 10.3522 3.80853 10.3522 4.39128Z" fill="#5735DE"/>
</g>
</svg>
