<svg width="14" height="10" viewBox="0 0 14 10" fill="none" xmlns="http://www.w3.org/2000/svg">
<path d="M0.199219 9.87195V8.38992C0.199219 8.04633 0.287896 7.73971 0.465252 7.47007C0.642597 7.20041 0.879441 6.99061 1.17579 6.84067C1.80935 6.53078 2.44643 6.29186 3.08702 6.12392C3.72762 5.95597 4.43168 5.872 5.1992 5.872C5.96672 5.872 6.67078 5.95597 7.31137 6.12392C7.95197 6.29186 8.58905 6.53078 9.22262 6.84067C9.51896 6.99061 9.75581 7.20041 9.93315 7.47007C10.1105 7.73971 10.1992 8.04633 10.1992 8.38992V9.87195H0.199219ZM11.5325 9.87195V8.30787C11.5325 7.87027 11.4254 7.45322 11.2111 7.05672C10.9968 6.66022 10.6928 6.32001 10.2992 6.0361C10.7462 6.10277 11.1706 6.20597 11.5723 6.34572C11.974 6.48546 12.3573 6.65063 12.7222 6.84122C13.0667 7.02497 13.3327 7.24155 13.5203 7.49095C13.7079 7.74036 13.8017 8.01267 13.8017 8.30787V9.87195H11.5325ZM5.1992 4.79504C4.55755 4.79504 4.00825 4.56657 3.5513 4.10964C3.09436 3.65269 2.86589 3.10339 2.86589 2.46174C2.86589 1.82007 3.09436 1.27077 3.5513 0.813835C4.00825 0.35689 4.55755 0.128418 5.1992 0.128418C5.84086 0.128418 6.39016 0.35689 6.8471 0.813835C7.30404 1.27077 7.5325 1.82007 7.5325 2.46174C7.5325 3.10339 7.30404 3.65269 6.8471 4.10964C6.39016 4.56657 5.84086 4.79504 5.1992 4.79504ZM10.9556 2.46174C10.9556 3.10339 10.7271 3.65269 10.2701 4.10964C9.81319 4.56657 9.26389 4.79504 8.62224 4.79504C8.54703 4.79504 8.4513 4.78649 8.33507 4.7694C8.21884 4.75231 8.12311 4.73351 8.0479 4.713C8.31081 4.39692 8.51286 4.04627 8.65405 3.66105C8.79524 3.27583 8.86584 2.87579 8.86584 2.46094C8.86584 2.04609 8.79383 1.64764 8.64982 1.26559C8.50581 0.883541 8.30517 0.531835 8.0479 0.210469C8.14362 0.17628 8.23935 0.154057 8.33507 0.143802C8.43079 0.133546 8.52651 0.128418 8.62224 0.128418C9.26389 0.128418 9.81319 0.35689 10.2701 0.813835C10.7271 1.27077 10.9556 1.82007 10.9556 2.46174Z" fill="#F2F2F2"/>
</svg>
