<svg width="20" height="20" viewBox="0 0 20 20" fill="none" xmlns="http://www.w3.org/2000/svg">
<path d="M10.05 17L12.9 14.175L10.05 11.35L9 12.4L10.075 13.475C9.60833 13.4917 9.15417 13.4167 8.7125 13.25C8.27083 13.0833 7.875 12.825 7.525 12.475C7.19167 12.1417 6.9375 11.7583 6.7625 11.325C6.5875 10.8917 6.5 10.4583 6.5 10.025C6.5 9.74167 6.5375 9.45833 6.6125 9.175C6.6875 8.89167 6.79167 8.61667 6.925 8.35L5.825 7.25C5.54167 7.66667 5.33333 8.10833 5.2 8.575C5.06667 9.04167 5 9.51667 5 10C5 10.6333 5.125 11.2583 5.375 11.875C5.625 12.4917 5.99167 13.0417 6.475 13.525C6.95833 14.0083 7.5 14.3708 8.1 14.6125C8.7 14.8542 9.31667 14.9833 9.95 15L9 15.95L10.05 17ZM14.175 12.75C14.4583 12.3333 14.6667 11.8917 14.8 11.425C14.9333 10.9583 15 10.4833 15 10C15 9.36667 14.8792 8.7375 14.6375 8.1125C14.3958 7.4875 14.0333 6.93333 13.55 6.45C13.0667 5.96667 12.5208 5.60833 11.9125 5.375C11.3042 5.14167 10.6833 5.025 10.05 5.025L11 4.05L9.95 3L7.1 5.825L9.95 8.65L11 7.6L9.9 6.5C10.35 6.5 10.8083 6.5875 11.275 6.7625C11.7417 6.9375 12.1417 7.19167 12.475 7.525C12.8083 7.85833 13.0625 8.24167 13.2375 8.675C13.4125 9.10833 13.5 9.54167 13.5 9.975C13.5 10.2583 13.4625 10.5417 13.3875 10.825C13.3125 11.1083 13.2083 11.3833 13.075 11.65L14.175 12.75ZM10 20C8.61667 20 7.31667 19.7375 6.1 19.2125C4.88333 18.6875 3.825 17.975 2.925 17.075C2.025 16.175 1.3125 15.1167 0.7875 13.9C0.2625 12.6833 0 11.3833 0 10C0 8.61667 0.2625 7.31667 0.7875 6.1C1.3125 4.88333 2.025 3.825 2.925 2.925C3.825 2.025 4.88333 1.3125 6.1 0.7875C7.31667 0.2625 8.61667 0 10 0C11.3833 0 12.6833 0.2625 13.9 0.7875C15.1167 1.3125 16.175 2.025 17.075 2.925C17.975 3.825 18.6875 4.88333 19.2125 6.1C19.7375 7.31667 20 8.61667 20 10C20 11.3833 19.7375 12.6833 19.2125 13.9C18.6875 15.1167 17.975 16.175 17.075 17.075C16.175 17.975 15.1167 18.6875 13.9 19.2125C12.6833 19.7375 11.3833 20 10 20ZM10 18C12.2333 18 14.125 17.225 15.675 15.675C17.225 14.125 18 12.2333 18 10C18 7.76667 17.225 5.875 15.675 4.325C14.125 2.775 12.2333 2 10 2C7.76667 2 5.875 2.775 4.325 4.325C2.775 5.875 2 7.76667 2 10C2 12.2333 2.775 14.125 4.325 15.675C5.875 17.225 7.76667 18 10 18Z" fill="#5735DE"/>
</svg>
