<svg width="14" height="13" viewBox="0 0 14 13" fill="none" xmlns="http://www.w3.org/2000/svg">
<path fill-rule="evenodd" clip-rule="evenodd" d="M7.00456 10.4498L2.98713 12.5L3.75456 8.15756L0.5 5.08253L4.99129 4.45072L7 0.5L9.00871 4.45072L13.5 5.08253L10.2454 8.15756L11.0129 12.5L7.00456 10.4498Z" fill="#FFB02E"/>
<path fill-rule="evenodd" clip-rule="evenodd" d="M7.00456 10.4498L2.98713 12.5L3.75456 8.15756L0.5 5.08253L4.99129 4.45072L7 0.5L9.00871 4.45072L13.5 5.08253L10.2454 8.15756L11.0129 12.5L7.00456 10.4498Z" stroke="#FFB02E" stroke-linecap="round" stroke-linejoin="round"/>
<path fill-rule="evenodd" clip-rule="evenodd" d="M7.00456 10.4498L2.98713 12.5L3.75456 8.15756L0.5 5.08253L4.99129 4.45072L7 0.5L9.00871 4.45072L13.5 5.08253L10.2454 8.15756L11.0129 12.5L7.00456 10.4498Z" stroke="white" stroke-opacity="0.2" stroke-linecap="round" stroke-linejoin="round"/>
</svg>
