<svg width="24" height="24" viewBox="0 0 24 24" fill="none" xmlns="http://www.w3.org/2000/svg">
<path d="M19.007 8.5738C18.9256 8.2719 18.7666 7.99658 18.5458 7.77523C18.3249 7.55389 18.0499 7.39425 17.7482 7.31219C16.6295 7.00501 12.1539 7.00001 12.1539 7.00001C12.1539 7.00001 7.67895 6.995 6.55951 7.28862C6.25798 7.37445 5.98358 7.53635 5.76266 7.75878C5.54173 7.98121 5.38169 8.2567 5.2979 8.5588C5.00286 9.67753 5 11.9979 5 11.9979C5 11.9979 4.99714 14.3296 5.29004 15.4369C5.45435 16.0491 5.93656 16.5328 6.54951 16.6978C7.67967 17.005 12.1432 17.01 12.1432 17.01C12.1432 17.01 16.6188 17.015 17.7375 16.7221C18.0393 16.6402 18.3146 16.4809 18.536 16.26C18.7573 16.0391 18.9172 15.7643 18.9998 15.4626C19.2956 14.3446 19.2977 12.025 19.2977 12.025C19.2977 12.025 19.312 9.69253 19.007 8.5738ZM10.7222 14.1474L10.7258 9.86113L14.4456 12.0079L10.7222 14.1474Z" fill="black"/>
</svg>