<svg width="15" height="11" viewBox="0 0 15 11" fill="none" xmlns="http://www.w3.org/2000/svg">
<path d="M14.007 1.5738C13.9256 1.2719 13.7666 0.996578 13.5458 0.775235C13.3249 0.553892 13.0499 0.394247 12.7482 0.312192C11.6295 0.00500599 7.15387 5.42685e-06 7.15387 5.42685e-06C7.15387 5.42685e-06 2.67895 -0.00499543 1.55951 0.288618C1.25798 0.374449 0.983585 0.536351 0.762656 0.75878C0.541728 0.98121 0.381688 1.2567 0.297901 1.5588C0.00285872 2.67753 1.04668e-06 4.99786 1.04668e-06 4.99786C1.04668e-06 4.99786 -0.00285649 7.32962 0.290042 8.43691C0.454351 9.04914 0.936563 9.53279 1.54951 9.69781C2.67967 10.005 7.14316 10.01 7.14316 10.01C7.14316 10.01 11.6188 10.015 12.7375 9.7221C13.0393 9.64019 13.3146 9.48091 13.536 9.26002C13.7573 9.03913 13.9172 8.76427 13.9998 8.46263C14.2956 7.34462 14.2977 5.025 14.2977 5.025C14.2977 5.025 14.312 2.69253 14.007 1.5738ZM5.72224 7.14745L5.72581 2.86113L9.44563 5.00786L5.72224 7.14745Z" fill="black"/>
</svg>
